solid
facet normal -0.836694 0.131936 -0.531542
outer loop
vertex 242.5042877197 281.3961486816 113.8154373169
vertex 244.6080780029 287.4097900391 111.9965591431
vertex 246.2870330811 280.9954528809 107.7615966797
endloop
endfacet
facet normal 0.010241 -0.006606 0.999926
outer loop
vertex 268.5816955566 282.6561889648 132.9861297607
vertex 277.6208496094 283.9625854492 132.9021911621
vertex 272.0374145508 289.5847473145 132.9965057373
endloop
endfacet
facet normal 0.012619 -0.027731 0.999536
outer loop
vertex 256.9911193848 296.3577575684 133.0628967285
vertex 262.5070800781 298.6951599121 133.0581054688
vertex 257.9046020508 302.7779541016 133.2294769287
endloop
endfacet
facet normal 0.225247 -0.794727 0.563625
outer loop
vertex 278.3554077148 259.3777770996 123.0406951904
vertex 270.9043579102 259.1197204590 125.6545562744
vertex 272.5588989258 254.9960632324 119.1788711548
endloop
endfacet
facet normal 0.060201 0.951125 -0.302881
outer loop
vertex 259.5904541016 285.6682739258 96.6569061279
vertex 261.7160949707 287.3037719727 102.2153167725
vertex 266.7107849121 285.5104064941 97.5764694214
endloop
endfacet
facet normal 0.836576 0.339585 -0.429910
outer loop
vertex 294.0550231934 292.0115966797 119.9937515259
vertex 291.2125244141 291.8934326172 114.3691482544
vertex 291.9246520996 295.8905029297 118.9121551514
endloop
endfacet
facet normal 0.311788 0.908189 -0.279252
outer loop
vertex 285.4012451172 302.9085083008 125.4147949219
vertex 284.1058349609 301.4335021973 119.1714401245
vertex 279.6468200684 303.9703369141 122.4432144165
endloop
endfacet
facet normal 0.107677 0.983842 0.143039
outer loop
vertex 279.6468200684 303.9703369141 122.4432144165
vertex 280.2624816895 302.9633483887 128.9059906006
vertex 285.4012451172 302.9085083008 125.4147949219
endloop
endfacet
facet normal 0.014813 -0.009315 0.999847
outer loop
vertex 268.3399353027 300.1342773438 132.9850921631
vertex 262.5070800781 298.6951599121 133.0581054688
vertex 267.4281616211 294.2665710449 132.9439392090
endloop
endfacet
facet normal -0.408338 -0.811022 0.418931
outer loop
vertex 260.6415405273 258.1572265625 123.2631225586
vertex 258.1212768555 261.3123474121 126.9146804810
vertex 255.8471221924 259.5909118652 121.3654403687
endloop
endfacet
facet normal 0.001737 0.007752 0.999968
outer loop
vertex 266.9597167969 274.5708312988 133.0516357422
vertex 268.5816955566 282.6561889648 132.9861297607
vertex 261.2293395996 279.0032653809 133.0272216797
endloop
endfacet
facet normal -0.671161 -0.741281 -0.006788
outer loop
vertex 245.8545074463 266.2904357910 116.1053771973
vertex 249.8891143799 262.6712951660 112.4094161987
vertex 250.3795623779 262.1668395996 119.0074920654
endloop
endfacet
facet normal -0.623243 -0.612495 0.486229
outer loop
vertex 250.3795623779 262.1668395996 119.0074920654
vertex 252.9432067871 264.0943603516 124.7215957642
vertex 247.9282531738 267.2881469727 122.3166885376
endloop
endfacet
facet normal 0.700985 -0.085085 0.708082
outer loop
vertex 289.1758117676 285.0315246582 128.4393615723
vertex 288.7427673340 278.1149902344 128.0369720459
vertex 293.5079650879 281.6995849609 123.7502822876
endloop
endfacet
facet normal 0.106952 0.006155 0.994245
outer loop
vertex 284.5230407715 288.1757812500 132.2755737305
vertex 284.8440856934 294.8847045898 132.1995086670
vertex 278.7490844727 291.7770996094 132.8743896484
endloop
endfacet
facet normal 0.730556 0.565415 -0.382875
outer loop
vertex 282.4281616211 282.8042602539 92.2789916992
vertex 280.8188171387 287.4338684082 96.0450820923
vertex 285.2428588867 283.0383605957 97.9954071045
endloop
endfacet
facet normal -0.277198 0.956482 0.091129
outer loop
vertex 247.3148651123 300.0343933105 121.5809707642
vertex 250.1619415283 300.3084106445 127.3651580811
vertex 253.6000671387 301.7645874023 122.5392379761
endloop
endfacet
facet normal 0.616805 0.518142 -0.592521
outer loop
vertex 288.6523437500 283.1948547363 104.5032348633
vertex 283.1444091797 288.0373840332 103.0042190552
vertex 287.4679870605 289.2455749512 108.5615386963
endloop
endfacet
facet normal 0.983228 -0.097882 0.153890
outer loop
vertex 294.3391113281 278.6781616211 116.5181045532
vertex 294.8357543945 286.3771362305 118.2419509888
vertex 293.5079650879 281.6995849609 123.7502822876
endloop
endfacet
facet normal 0.091190 -0.944605 -0.315287
outer loop
vertex 265.9067382813 260.4447631836 94.3046951294
vertex 267.7149353027 262.5110473633 88.6370086670
vertex 273.2581176758 261.6283874512 92.8847503662
endloop
endfacet
facet normal -0.107380 -0.884001 -0.454986
outer loop
vertex 268.8182678223 256.5210571289 104.2481842041
vertex 263.6225585938 256.5874328613 105.3454742432
vertex 264.4791870117 258.9405822754 100.5713119507
endloop
endfacet
facet normal -0.826797 0.291236 -0.481236
outer loop
vertex 253.8100738525 283.2113037109 96.1920089722
vertex 251.3037414551 277.7615356445 97.1999588013
vertex 250.4497528076 282.5997619629 101.5951766968
endloop
endfacet
facet normal -0.088387 -0.927820 -0.362406
outer loop
vertex 263.6225585938 256.5874328613 105.3454742432
vertex 268.8182678223 256.5210571289 104.2481842041
vertex 266.2623291016 254.9898376465 108.7917785645
endloop
endfacet
facet normal 0.620106 0.613412 -0.489074
outer loop
vertex 280.8188171387 287.4338684082 96.0450820923
vertex 282.4281616211 282.8042602539 92.2789916992
vertex 276.8222351074 285.4745788574 88.5203399658
endloop
endfacet
facet normal -0.158419 0.096257 0.982669
outer loop
vertex 250.4016723633 294.3029174805 131.6304473877
vertex 250.1113891602 286.7926025391 132.3193206787
vertex 256.0737609863 289.8055725098 132.9853973389
endloop
endfacet
facet normal -0.204740 -0.953327 0.221921
outer loop
vertex 260.3736267090 256.8747558594 117.7892227173
vertex 266.2056274414 254.9112243652 114.7348327637
vertex 265.7234497070 256.6082458496 121.5799789429
endloop
endfacet
facet normal 0.975607 -0.019442 0.218662
outer loop
vertex 293.4602355957 288.7729187012 124.5921096802
vertex 293.5079650879 281.6995849609 123.7502822876
vertex 294.8357543945 286.3771362305 118.2419509888
endloop
endfacet
facet normal 0.703476 -0.079311 0.706280
outer loop
vertex 293.4602355957 288.7729187012 124.5921096802
vertex 289.1758117676 285.0315246582 128.4393615723
vertex 293.5079650879 281.6995849609 123.7502822876
endloop
endfacet
facet normal 0.529012 -0.743120 -0.409780
outer loop
vertex 273.2581176758 261.6283874512 92.8847503662
vertex 278.5768432617 266.6846313477 90.5816955566
vertex 278.9510498047 263.8972167969 96.1196975708
endloop
endfacet
facet normal 0.075428 -0.483120 0.872299
outer loop
vertex 268.4201965332 263.9603271484 130.2766113281
vertex 271.9642639160 269.4138793945 132.9905853271
vertex 265.7969970703 268.4982604980 133.0167541504
endloop
endfacet
facet normal 0.011558 0.002020 0.999931
outer loop
vertex 261.6005249023 285.9708862305 132.9292602539
vertex 256.0737609863 289.8055725098 132.9853973389
vertex 255.5532531738 283.0522766113 133.0050506592
endloop
endfacet
facet normal -0.926788 -0.079489 -0.367077
outer loop
vertex 242.5042877197 281.3961486816 113.8154373169
vertex 243.7512969971 276.7628479004 111.6703186035
vertex 241.8883514404 276.2771301270 116.4790420532
endloop
endfacet
facet normal 0.133338 -0.959453 -0.248338
outer loop
vertex 272.8494567871 255.5283966064 110.2478256226
vertex 266.2623291016 254.9898376465 108.7917785645
vertex 268.8182678223 256.5210571289 104.2481842041
endloop
endfacet
facet normal -0.211541 -0.938465 -0.273009
outer loop
vertex 263.6225585938 256.5874328613 105.3454742432
vertex 266.2623291016 254.9898376465 108.7917785645
vertex 260.1092224121 255.9325561523 110.3188781738
endloop
endfacet
facet normal -0.045785 0.851622 -0.522153
outer loop
vertex 268.9790344238 298.6065063477 118.6015701294
vertex 268.4071350098 295.2273254395 113.1403121948
vertex 263.2974548340 297.0884399414 116.6238098145
endloop
endfacet
facet normal -0.774994 -0.471282 0.421043
outer loop
vertex 247.9282531738 267.2881469727 122.3166885376
vertex 246.2824249268 272.6624145508 125.3027801514
vertex 243.8855743408 271.4602050781 119.5453414917
endloop
endfacet
facet normal 0.092735 0.851368 -0.516307
outer loop
vertex 257.9790344238 290.2263183594 106.3632507324
vertex 263.3660888672 289.7608642578 106.5633239746
vertex 261.7160949707 287.3037719727 102.2153167725
endloop
endfacet
facet normal -0.084476 0.856017 -0.510000
outer loop
vertex 268.9790344238 298.6065063477 118.6015701294
vertex 263.7781677246 300.0428771973 121.8739089966
vertex 269.1691589355 301.6932983398 123.7511291504
endloop
endfacet
facet normal -0.698472 -0.641750 -0.316693
outer loop
vertex 259.1080017090 262.6731872559 97.2086715698
vertex 253.8621520996 267.9759826660 98.0328140259
vertex 256.7725524902 267.7172241211 92.1382293701
endloop
endfacet
facet normal -0.033812 -0.970050 -0.240541
outer loop
vertex 264.4791870117 258.9405822754 100.5713119507
vertex 265.9067382813 260.4447631836 94.3046951294
vertex 270.5509033203 259.1545715332 98.8549118042
endloop
endfacet
facet normal 0.572941 -0.742405 -0.347237
outer loop
vertex 280.0793762207 258.7973327637 107.7156448364
vertex 279.8481140137 261.5231018066 101.5062942505
vertex 284.9177551270 263.6942138672 105.2292785645
endloop
endfacet
facet normal 0.374532 -0.339689 -0.862750
outer loop
vertex 278.5768432617 266.6846313477 90.5816955566
vertex 272.1677856445 266.9973754883 87.6763076782
vertex 276.4361572266 272.7823181152 87.2515792847
endloop
endfacet
facet normal 0.104336 -0.060753 -0.992685
outer loop
vertex 272.1677856445 266.9973754883 87.6763076782
vertex 265.5859069824 267.8742675781 86.9308547974
vertex 269.4636230469 273.2171630859 87.0114364624
endloop
endfacet
facet normal 0.684962 0.632867 -0.360979
outer loop
vertex 285.0778198242 293.8536376953 112.1050186157
vertex 287.4679870605 289.2455749512 108.5615386963
vertex 283.3184204102 292.8967895508 107.0889663696
endloop
endfacet
facet normal 0.012548 -0.032166 -0.999404
outer loop
vertex 273.2410583496 279.0554809570 87.0095672607
vertex 281.0930480957 278.6676635742 87.1206283569
vertex 276.4361572266 272.7823181152 87.2515792847
endloop
endfacet
facet normal 0.680772 -0.350632 0.643123
outer loop
vertex 288.7427673340 278.1149902344 128.0369720459
vertex 284.5141296387 275.7529907227 131.2254180908
vertex 286.3366088867 271.8815307617 127.1854782104
endloop
endfacet
facet normal -0.818242 -0.331817 -0.469444
outer loop
vertex 251.3283843994 272.7481689453 99.0760650635
vertex 253.8621520996 267.9759826660 98.0328140259
vertex 250.0323028564 269.3180541992 103.7596206665
endloop
endfacet
facet normal -0.177031 0.692241 -0.699616
outer loop
vertex 267.8809814453 290.7107238770 108.8044815063
vertex 261.8759460449 292.2420043945 111.8391189575
vertex 268.4071350098 295.2273254395 113.1403121948
endloop
endfacet
facet normal -0.920772 -0.125427 -0.369386
outer loop
vertex 243.7512969971 276.7628479004 111.6703186035
vertex 243.7937164307 271.6730346680 113.2928466797
vertex 241.8883514404 276.2771301270 116.4790420532
endloop
endfacet
facet normal 0.924414 0.098367 -0.368488
outer loop
vertex 291.0141601563 275.8437805176 108.4659194946
vertex 287.7157592773 276.9050292969 100.4746475220
vertex 288.6523437500 283.1948547363 104.5032348633
endloop
endfacet
facet normal -0.087894 0.647148 -0.757280
outer loop
vertex 269.9449462891 283.4735107422 91.1676483154
vertex 273.2410583496 279.0554809570 87.0095672607
vertex 266.4048767090 278.9783630371 87.7371139526
endloop
endfacet
facet normal 0.948394 -0.123378 -0.292109
outer loop
vertex 282.5894470215 272.2004089355 90.6879959106
vertex 284.3405761719 277.6011962891 94.0922622681
vertex 284.5165100098 271.8690185547 97.0845794678
endloop
endfacet
facet normal -0.690603 -0.584114 -0.426472
outer loop
vertex 254.0827941895 263.5750122070 102.7945632935
vertex 253.9576263428 259.7941284180 108.1757354736
vertex 250.6747741699 264.3840026855 107.2053070068
endloop
endfacet
facet normal -0.923867 -0.382713 0.000545
outer loop
vertex 243.8855743408 271.4602050781 119.5453414917
vertex 241.8883514404 276.2771301270 116.4790420532
vertex 243.7937164307 271.6730346680 113.2928466797
endloop
endfacet
facet normal 0.082429 0.643516 -0.760982
outer loop
vertex 259.4082031250 279.2279968262 87.1903381348
vertex 263.1433715820 283.7482910156 91.4174728394
vertex 266.4048767090 278.9783630371 87.7371139526
endloop
endfacet
facet normal 0.093628 0.910872 -0.401927
outer loop
vertex 257.9790344238 290.2263183594 106.3632507324
vertex 261.8759460449 292.2420043945 111.8391189575
vertex 263.3660888672 289.7608642578 106.5633239746
endloop
endfacet
facet normal -0.573644 0.458956 0.678448
outer loop
vertex 250.4016723633 294.3029174805 131.6304473877
vertex 250.1619415283 300.3084106445 127.3651580811
vertex 245.2245330811 295.7858886719 126.2498397827
endloop
endfacet
facet normal 0.103651 -0.469531 0.876811
outer loop
vertex 268.4201965332 263.9603271484 130.2766113281
vertex 265.7969970703 268.4982604980 133.0167541504
vertex 261.7550354004 264.3889160156 131.2940216064
endloop
endfacet
facet normal 0.983868 0.059072 0.168864
outer loop
vertex 293.4602355957 288.7729187012 124.5921096802
vertex 294.0550231934 292.0115966797 119.9937515259
vertex 293.0957946777 295.2384948730 124.4536514282
endloop
endfacet
facet normal -0.872673 -0.161238 -0.460917
outer loop
vertex 251.3037414551 277.7615356445 97.1999588013
vertex 254.1140594482 278.5661926270 91.5975570679
vertex 253.7592773438 272.9321594238 94.2401809692
endloop
endfacet
facet normal -0.863078 0.325500 -0.386194
outer loop
vertex 253.8100738525 283.2113037109 96.1920089722
vertex 254.1140594482 278.5661926270 91.5975570679
vertex 251.3037414551 277.7615356445 97.1999588013
endloop
endfacet
facet normal -0.176969 0.887690 -0.425075
outer loop
vertex 258.6075439453 300.9041748047 118.6576919556
vertex 252.2946624756 298.4257812500 116.1102371216
vertex 253.6000671387 301.7645874023 122.5392379761
endloop
endfacet
facet normal 0.005825 -0.006184 0.999964
outer loop
vertex 274.2916259766 276.5270080566 133.0210113525
vertex 266.9597167969 274.5708312988 133.0516357422
vertex 271.9642639160 269.4138793945 132.9905853271
endloop
endfacet
facet normal 0.060691 0.949806 -0.306896
outer loop
vertex 266.7107849121 285.5104064941 97.5764694214
vertex 263.1433715820 283.7482910156 91.4174728394
vertex 259.5904541016 285.6682739258 96.6569061279
endloop
endfacet
facet normal 0.009732 0.958274 -0.285684
outer loop
vertex 259.5904541016 285.6682739258 96.6569061279
vertex 255.4708404541 287.0691528320 101.2155990601
vertex 261.7160949707 287.3037719727 102.2153167725
endloop
endfacet
facet normal 0.604324 0.118187 0.787924
outer loop
vertex 288.5876770020 291.5539550781 127.9121246338
vertex 289.1758117676 285.0315246582 128.4393615723
vertex 293.4602355957 288.7729187012 124.5921096802
endloop
endfacet
facet normal 0.483139 0.772815 -0.411502
outer loop
vertex 289.3479919434 299.5205688477 121.7335662842
vertex 287.6903686523 297.5609436035 116.1071548462
vertex 284.1058349609 301.4335021973 119.1714401245
endloop
endfacet
facet normal 0.753249 -0.405497 0.517869
outer loop
vertex 288.2414550781 267.9213867188 121.3140335083
vertex 286.3366088867 271.8815307617 127.1854782104
vertex 283.2687683105 264.9719238281 126.2374496460
endloop
endfacet
facet normal 0.442889 -0.846438 0.295621
outer loop
vertex 278.3554077148 259.3777770996 123.0406951904
vertex 272.5588989258 254.9960632324 119.1788711548
vertex 279.7441101074 257.4409179688 115.4145126343
endloop
endfacet
facet normal -0.557854 -0.647870 0.518712
outer loop
vertex 255.6221618652 266.1769714355 130.2038879395
vertex 250.4393615723 268.8358459473 127.9509353638
vertex 252.9432067871 264.0943603516 124.7215957642
endloop
endfacet
facet normal 0.502027 -0.782888 -0.367498
outer loop
vertex 279.8481140137 261.5231018066 101.5062942505
vertex 275.0136718750 257.6761169434 103.0974502563
vertex 275.7238769531 260.3853454590 98.2961502075
endloop
endfacet
facet normal -0.016933 0.006948 0.999833
outer loop
vertex 272.0374145508 289.5847473145 132.9965057373
vertex 266.3011474609 288.9649963379 132.9036712646
vertex 268.5816955566 282.6561889648 132.9861297607
endloop
endfacet
facet normal -0.080020 -0.011410 0.996728
outer loop
vertex 254.7781677246 276.4467468262 132.8672027588
vertex 255.5532531738 283.0522766113 133.0050506592
vertex 249.5358123779 280.2821960449 132.4902496338
endloop
endfacet
facet normal 0.871972 0.165303 -0.460803
outer loop
vertex 285.2428588867 283.0383605957 97.9954071045
vertex 288.6523437500 283.1948547363 104.5032348633
vertex 287.7157592773 276.9050292969 100.4746475220
endloop
endfacet
facet normal 0.649783 0.035125 0.759308
outer loop
vertex 289.1758117676 285.0315246582 128.4393615723
vertex 284.5230407715 288.1757812500 132.2755737305
vertex 284.7518920898 281.3364257813 132.3961181641
endloop
endfacet
facet normal -0.851743 -0.327203 -0.409232
outer loop
vertex 256.7725524902 267.7172241211 92.1382293701
vertex 253.7592773438 272.9321594238 94.2401809692
vertex 256.5850524902 273.1525573730 88.1826324463
endloop
endfacet
facet normal -0.491223 -0.523555 -0.696125
outer loop
vertex 256.5850524902 273.1525573730 88.1826324463
vertex 260.4945068359 269.0641174316 88.4988250732
vertex 256.7725524902 267.7172241211 92.1382293701
endloop
endfacet
facet normal -0.004534 0.608925 -0.793215
outer loop
vertex 266.4048767090 278.9783630371 87.7371139526
vertex 263.1433715820 283.7482910156 91.4174728394
vertex 269.9449462891 283.4735107422 91.1676483154
endloop
endfacet
facet normal -0.534316 -0.698880 0.475471
outer loop
vertex 252.9432067871 264.0943603516 124.7215957642
vertex 250.3795623779 262.1668395996 119.0074920654
vertex 255.8471221924 259.5909118652 121.3654403687
endloop
endfacet
facet normal -0.430389 0.427247 -0.795126
outer loop
vertex 269.9449462891 283.4735107422 91.1676483154
vertex 276.8222351074 285.4745788574 88.5203399658
vertex 273.2410583496 279.0554809570 87.0095672607
endloop
endfacet
facet normal -0.687266 0.402188 0.604905
outer loop
vertex 253.6211853027 300.0289611816 131.4811859131
vertex 250.1619415283 300.3084106445 127.3651580811
vertex 250.4016723633 294.3029174805 131.6304473877
endloop
endfacet
facet normal -0.100134 -0.864236 0.493020
outer loop
vertex 265.7234497070 256.6082458496 121.5799789429
vertex 264.1956787109 259.8973083496 127.0352325439
vertex 260.6415405273 258.1572265625 123.2631225586
endloop
endfacet
facet normal -0.722246 -0.388699 0.572078
outer loop
vertex 249.4555206299 274.3086853027 130.4273529053
vertex 246.2824249268 272.6624145508 125.3027801514
vertex 250.4393615723 268.8358459473 127.9509353638
endloop
endfacet
facet normal 0.900140 0.195126 -0.389454
outer loop
vertex 282.4281616211 282.8042602539 92.2789916992
vertex 284.3405761719 277.6011962891 94.0922622681
vertex 281.0930480957 278.6676635742 87.1206283569
endloop
endfacet
facet normal -0.369992 0.841645 -0.393369
outer loop
vertex 274.4193725586 300.8719177246 120.7306823730
vertex 274.5548706055 303.3514099121 125.9082946777
vertex 279.6468200684 303.9703369141 122.4432144165
endloop
endfacet
facet normal -0.156748 0.849649 -0.503514
outer loop
vertex 274.4193725586 300.8719177246 120.7306823730
vertex 268.9790344238 298.6065063477 118.6015701294
vertex 269.1691589355 301.6932983398 123.7511291504
endloop
endfacet
facet normal -0.760126 -0.435648 -0.482099
outer loop
vertex 250.6747741699 264.3840026855 107.2053070068
vertex 247.1237640381 267.6773986816 109.8281097412
vertex 250.0323028564 269.3180541992 103.7596206665
endloop
endfacet
facet normal 0.251816 -0.719937 0.646746
outer loop
vertex 270.9043579102 259.1197204590 125.6545562744
vertex 278.3554077148 259.3777770996 123.0406951904
vertex 275.7247924805 263.9603271484 129.1660919189
endloop
endfacet
facet normal 0.000467 0.894300 -0.447468
outer loop
vertex 283.1444091797 288.0373840332 103.0042190552
vertex 276.8060913086 287.3347473145 101.5933532715
vertex 278.3497009277 289.9841918945 106.8900680542
endloop
endfacet
facet normal 0.919235 -0.314394 0.236990
outer loop
vertex 291.3564453125 274.4739074707 122.5098800659
vertex 294.3391113281 278.6781616211 116.5181045532
vertex 293.5079650879 281.6995849609 123.7502822876
endloop
endfacet
facet normal 0.622568 -0.370962 0.689055
outer loop
vertex 283.2687683105 264.9719238281 126.2374496460
vertex 286.3366088867 271.8815307617 127.1854782104
vertex 280.2173767090 270.8905639648 132.1807556152
endloop
endfacet
facet normal -0.746785 -0.443402 -0.495689
outer loop
vertex 254.0827941895 263.5750122070 102.7945632935
vertex 250.6747741699 264.3840026855 107.2053070068
vertex 250.0323028564 269.3180541992 103.7596206665
endloop
endfacet
facet normal 0.205234 0.644739 -0.736336
outer loop
vertex 263.2974548340 297.0884399414 116.6238098145
vertex 258.2144165039 296.5812377930 114.7629470825
vertex 258.6075439453 300.9041748047 118.6576919556
endloop
endfacet
facet normal -0.652532 0.574819 -0.493746
outer loop
vertex 242.7469940186 292.5553894043 116.2127761841
vertex 242.9937438965 296.5698852539 120.5603408813
vertex 246.1978607178 296.9493103027 116.7675247192
endloop
endfacet
facet normal 0.923563 0.005796 -0.383403
outer loop
vertex 294.3391113281 278.6781616211 116.5181045532
vertex 291.0141601563 275.8437805176 108.4659194946
vertex 292.1243286133 284.4016418457 111.2695083618
endloop
endfacet
facet normal 0.625961 -0.592862 -0.506643
outer loop
vertex 282.9834899902 266.4797668457 99.5798950195
vertex 284.9177551270 263.6942138672 105.2292785645
vertex 279.8481140137 261.5231018066 101.5062942505
endloop
endfacet
facet normal 0.929614 0.022398 -0.367852
outer loop
vertex 292.1243286133 284.4016418457 111.2695083618
vertex 294.8357543945 286.3771362305 118.2419509888
vertex 294.3391113281 278.6781616211 116.5181045532
endloop
endfacet
facet normal 0.881261 0.170259 -0.440898
outer loop
vertex 282.4281616211 282.8042602539 92.2789916992
vertex 285.2428588867 283.0383605957 97.9954071045
vertex 284.3405761719 277.6011962891 94.0922622681
endloop
endfacet
facet normal -0.641191 0.205403 -0.739380
outer loop
vertex 254.1140594482 278.5661926270 91.5975570679
vertex 256.3874206543 284.0249023438 91.1425552368
vertex 259.4082031250 279.2279968262 87.1903381348
endloop
endfacet
facet normal -0.010632 0.000762 0.999943
outer loop
vertex 273.5172729492 295.8699035645 133.0074615479
vertex 267.4281616211 294.2665710449 132.9439392090
vertex 272.0374145508 289.5847473145 132.9965057373
endloop
endfacet
facet normal -0.526956 0.765824 -0.368552
outer loop
vertex 246.1978607178 296.9493103027 116.7675247192
vertex 242.9937438965 296.5698852539 120.5603408813
vertex 247.3148651123 300.0343933105 121.5809707642
endloop
endfacet
facet normal 0.555511 0.806985 -0.200456
outer loop
vertex 259.4122009277 307.7247619629 128.5243988037
vertex 262.6666564941 306.4747009277 132.5109100342
vertex 263.8878784180 304.0942687988 126.3121871948
endloop
endfacet
facet normal -0.190284 0.974341 -0.120218
outer loop
vertex 273.7511901855 286.0469970703 95.9918060303
vertex 276.8060913086 287.3347473145 101.5933532715
vertex 280.8188171387 287.4338684082 96.0450820923
endloop
endfacet
facet normal -0.179596 0.887471 -0.424428
outer loop
vertex 253.6000671387 301.7645874023 122.5392379761
vertex 252.2946624756 298.4257812500 116.1102371216
vertex 247.3148651123 300.0343933105 121.5809707642
endloop
endfacet
facet normal 0.192431 0.742341 -0.641795
outer loop
vertex 279.4208679199 294.3021545410 110.9276428223
vertex 281.5791320801 297.5184631348 115.2949676514
vertex 285.0778198242 293.8536376953 112.1050186157
endloop
endfacet
facet normal 0.798318 -0.428479 -0.423195
outer loop
vertex 289.3150024414 267.4264526367 109.7454681396
vertex 284.9177551270 263.6942138672 105.2292785645
vertex 287.2806091309 270.1485290527 103.1516799927
endloop
endfacet
facet normal -0.017335 -0.018827 0.999672
outer loop
vertex 255.5532531738 283.0522766113 133.0050506592
vertex 254.7781677246 276.4467468262 132.8672027588
vertex 261.2293395996 279.0032653809 133.0272216797
endloop
endfacet
facet normal 0.797493 -0.597507 -0.083610
outer loop
vertex 288.5124206543 265.5169982910 115.7357711792
vertex 285.2731018066 261.6935119629 112.1622848511
vertex 289.3150024414 267.4264526367 109.7454681396
endloop
endfacet
facet normal -0.133066 -0.269013 0.953900
outer loop
vertex 261.7550354004 264.3889160156 131.2940216064
vertex 265.7969970703 268.4982604980 133.0167541504
vertex 259.8718261719 271.3200378418 132.9859924316
endloop
endfacet
facet normal -0.327830 -0.935801 0.129629
outer loop
vertex 260.1092224121 255.9325561523 110.3188781738
vertex 260.3736267090 256.8747558594 117.7892227173
vertex 254.5069732666 258.5311279297 114.9101257324
endloop
endfacet
facet normal -0.836025 -0.351386 0.421415
outer loop
vertex 242.9399566650 276.9661560059 122.2603988647
vertex 243.8855743408 271.4602050781 119.5453414917
vertex 246.2824249268 272.6624145508 125.3027801514
endloop
endfacet
facet normal -0.677104 0.202792 0.707393
outer loop
vertex 245.4087219238 289.3693237305 128.2656097412
vertex 250.4016723633 294.3029174805 131.6304473877
vertex 245.2245330811 295.7858886719 126.2498397827
endloop
endfacet
facet normal 0.113569 -0.655017 0.747031
outer loop
vertex 275.7247924805 263.9603271484 129.1660919189
vertex 268.4201965332 263.9603271484 130.2766113281
vertex 270.9043579102 259.1197204590 125.6545562744
endloop
endfacet
facet normal -0.933068 -0.113494 -0.341326
outer loop
vertex 250.0323028564 269.3180541992 103.7596206665
vertex 249.4765319824 276.2070007324 102.9882736206
vertex 251.3283843994 272.7481689453 99.0760650635
endloop
endfacet
facet normal -0.836617 -0.011315 -0.547671
outer loop
vertex 246.2752380371 273.6907653809 107.9305267334
vertex 246.2870330811 280.9954528809 107.7615966797
vertex 249.4765319824 276.2070007324 102.9882736206
endloop
endfacet
facet normal 0.092258 -0.906129 -0.412818
outer loop
vertex 270.5509033203 259.1545715332 98.8549118042
vertex 275.0136718750 257.6761169434 103.0974502563
vertex 268.8182678223 256.5210571289 104.2481842041
endloop
endfacet
facet normal 0.435458 -0.579692 -0.688719
outer loop
vertex 273.2581176758 261.6283874512 92.8847503662
vertex 267.7149353027 262.5110473633 88.6370086670
vertex 272.1677856445 266.9973754883 87.6763076782
endloop
endfacet
facet normal 0.071717 -0.276406 -0.958361
outer loop
vertex 267.7149353027 262.5110473633 88.6370086670
vertex 265.5859069824 267.8742675781 86.9308547974
vertex 272.1677856445 266.9973754883 87.6763076782
endloop
endfacet
facet normal -0.680000 0.667641 0.303078
outer loop
vertex 245.2245330811 295.7858886719 126.2498397827
vertex 250.1619415283 300.3084106445 127.3651580811
vertex 247.3148651123 300.0343933105 121.5809707642
endloop
endfacet
facet normal -0.002343 0.012223 0.999923
outer loop
vertex 268.5816955566 282.6561889648 132.9861297607
vertex 266.3011474609 288.9649963379 132.9036712646
vertex 261.6005249023 285.9708862305 132.9292602539
endloop
endfacet
facet normal 0.764738 -0.577384 0.286015
outer loop
vertex 292.4492797852 270.7190246582 115.7109222412
vertex 288.2414550781 267.9213867188 121.3140335083
vertex 288.5124206543 265.5169982910 115.7357711792
endloop
endfacet
facet normal 0.794288 -0.601521 -0.085319
outer loop
vertex 289.3150024414 267.4264526367 109.7454681396
vertex 292.4492797852 270.7190246582 115.7109222412
vertex 288.5124206543 265.5169982910 115.7357711792
endloop
endfacet
facet normal 0.093288 0.669481 -0.736948
outer loop
vertex 284.1058349609 301.4335021973 119.1714401245
vertex 287.6903686523 297.5609436035 116.1071548462
vertex 281.5791320801 297.5184631348 115.2949676514
endloop
endfacet
facet normal 0.429216 -0.358074 -0.829191
outer loop
vertex 276.4361572266 272.7823181152 87.2515792847
vertex 281.0930480957 278.6676635742 87.1206283569
vertex 282.5894470215 272.2004089355 90.6879959106
endloop
endfacet
facet normal -0.666945 -0.658771 -0.348147
outer loop
vertex 256.7725524902 267.7172241211 92.1382293701
vertex 261.6620178223 263.7637023926 90.2524032593
vertex 259.1080017090 262.6731872559 97.2086715698
endloop
endfacet
facet normal 0.904703 -0.025263 -0.425293
outer loop
vertex 282.5894470215 272.2004089355 90.6879959106
vertex 281.0930480957 278.6676635742 87.1206283569
vertex 284.3405761719 277.6011962891 94.0922622681
endloop
endfacet
facet normal 0.029148 -0.117337 0.992664
outer loop
vertex 280.2173767090 270.8905639648 132.1807556152
vertex 280.3866271973 277.6537170410 132.9752349854
vertex 274.2916259766 276.5270080566 133.0210113525
endloop
endfacet
facet normal 0.104386 -0.038406 0.993795
outer loop
vertex 280.2173767090 270.8905639648 132.1807556152
vertex 274.2916259766 276.5270080566 133.0210113525
vertex 271.9642639160 269.4138793945 132.9905853271
endloop
endfacet
facet normal 0.004969 0.013755 0.999893
outer loop
vertex 274.2916259766 276.5270080566 133.0210113525
vertex 280.3866271973 277.6537170410 132.9752349854
vertex 277.6208496094 283.9625854492 132.9021911621
endloop
endfacet
facet normal -0.996187 -0.048550 0.072485
outer loop
vertex 241.0470733643 286.1861877441 117.6625366211
vertex 241.4013214111 280.7699890137 118.9034881592
vertex 241.6702270508 283.3927917480 124.3558502197
endloop
endfacet
facet normal 0.164099 0.753826 -0.636252
outer loop
vertex 274.6657409668 298.3323364258 114.4761657715
vertex 281.5791320801 297.5184631348 115.2949676514
vertex 279.4208679199 294.3021545410 110.9276428223
endloop
endfacet
facet normal -0.288137 -0.866415 -0.407801
outer loop
vertex 267.7149353027 262.5110473633 88.6370086670
vertex 265.9067382813 260.4447631836 94.3046951294
vertex 261.6620178223 263.7637023926 90.2524032593
endloop
endfacet
facet normal -0.312579 -0.398401 -0.862306
outer loop
vertex 261.6620178223 263.7637023926 90.2524032593
vertex 265.5859069824 267.8742675781 86.9308547974
vertex 267.7149353027 262.5110473633 88.6370086670
endloop
endfacet
facet normal -0.832384 -0.347588 -0.431647
outer loop
vertex 251.3283843994 272.7481689453 99.0760650635
vertex 253.7592773438 272.9321594238 94.2401809692
vertex 253.8621520996 267.9759826660 98.0328140259
endloop
endfacet
facet normal 0.200105 0.658001 -0.725942
outer loop
vertex 263.2974548340 297.0884399414 116.6238098145
vertex 261.8759460449 292.2420043945 111.8391189575
vertex 258.2144165039 296.5812377930 114.7629470825
endloop
endfacet
facet normal -0.654395 -0.570177 -0.496654
outer loop
vertex 253.8621520996 267.9759826660 98.0328140259
vertex 259.1080017090 262.6731872559 97.2086715698
vertex 254.0827941895 263.5750122070 102.7945632935
endloop
endfacet
facet normal -0.566752 -0.724142 -0.392951
outer loop
vertex 259.1080017090 262.6731872559 97.2086715698
vertex 259.0244445801 259.1304626465 103.8577880859
vertex 254.0827941895 263.5750122070 102.7945632935
endloop
endfacet
facet normal 0.021274 0.766299 -0.642132
outer loop
vertex 274.5548706055 303.3514099121 125.9082946777
vertex 269.1691589355 301.6932983398 123.7511291504
vertex 269.3305053711 305.1003723145 127.8223648071
endloop
endfacet
facet normal 0.018339 0.906756 -0.421257
outer loop
vertex 263.3660888672 289.7608642578 106.5633239746
vertex 261.8759460449 292.2420043945 111.8391189575
vertex 267.8809814453 290.7107238770 108.8044815063
endloop
endfacet
facet normal 0.051552 0.948482 -0.312608
outer loop
vertex 256.3874206543 284.0249023438 91.1425552368
vertex 259.5904541016 285.6682739258 96.6569061279
vertex 263.1433715820 283.7482910156 91.4174728394
endloop
endfacet
facet normal -0.961385 0.227232 -0.155258
outer loop
vertex 242.7469940186 292.5553894043 116.2127761841
vertex 241.3627319336 291.1184082031 122.6811523438
vertex 242.9937438965 296.5698852539 120.5603408813
endloop
endfacet
facet normal -0.962534 0.221196 -0.156845
outer loop
vertex 242.7469940186 292.5553894043 116.2127761841
vertex 241.0470733643 286.1861877441 117.6625366211
vertex 241.3627319336 291.1184082031 122.6811523438
endloop
endfacet
facet normal 0.421519 -0.699789 0.576729
outer loop
vertex 283.2687683105 264.9719238281 126.2374496460
vertex 278.3554077148 259.3777770996 123.0406951904
vertex 285.6389160156 260.9731750488 119.6531753540
endloop
endfacet
facet normal -0.259895 0.170901 0.950393
outer loop
vertex 250.4016723633 294.3029174805 131.6304473877
vertex 256.9911193848 296.3577575684 133.0628967285
vertex 253.6211853027 300.0289611816 131.4811859131
endloop
endfacet
facet normal 0.340997 -0.118087 0.932618
outer loop
vertex 284.5141296387 275.7529907227 131.2254180908
vertex 280.3866271973 277.6537170410 132.9752349854
vertex 280.2173767090 270.8905639648 132.1807556152
endloop
endfacet
facet normal -0.007265 -0.004352 0.999964
outer loop
vertex 266.9597167969 274.5708312988 133.0516357422
vertex 259.8718261719 271.3200378418 132.9859924316
vertex 265.7969970703 268.4982604980 133.0167541504
endloop
endfacet
facet normal -0.852060 0.110974 -0.511545
outer loop
vertex 242.7469940186 292.5553894043 116.2127761841
vertex 244.6080780029 287.4097900391 111.9965591431
vertex 241.0470733643 286.1861877441 117.6625366211
endloop
endfacet
facet normal 0.707682 -0.595451 -0.380295
outer loop
vertex 282.9834899902 266.4797668457 99.5798950195
vertex 279.8481140137 261.5231018066 101.5062942505
vertex 278.9510498047 263.8972167969 96.1196975708
endloop
endfacet
facet normal 0.038450 0.666927 -0.744130
outer loop
vertex 252.2946624756 298.4257812500 116.1102371216
vertex 258.6075439453 300.9041748047 118.6576919556
vertex 258.2144165039 296.5812377930 114.7629470825
endloop
endfacet
facet normal -0.347632 0.913152 -0.212848
outer loop
vertex 276.8222351074 285.4745788574 88.5203399658
vertex 269.9449462891 283.4735107422 91.1676483154
vertex 273.7511901855 286.0469970703 95.9918060303
endloop
endfacet
facet normal -0.189209 0.970087 -0.152093
outer loop
vertex 276.8222351074 285.4745788574 88.5203399658
vertex 273.7511901855 286.0469970703 95.9918060303
vertex 280.8188171387 287.4338684082 96.0450820923
endloop
endfacet
facet normal 0.293300 -0.634320 -0.715272
outer loop
vertex 272.1677856445 266.9973754883 87.6763076782
vertex 278.5768432617 266.6846313477 90.5816955566
vertex 273.2581176758 261.6283874512 92.8847503662
endloop
endfacet
facet normal -0.646548 0.295201 -0.703443
outer loop
vertex 246.2870330811 280.9954528809 107.7615966797
vertex 244.6080780029 287.4097900391 111.9965591431
vertex 250.6039428711 288.5180969238 106.9507369995
endloop
endfacet
facet normal 0.111970 0.924160 -0.365227
outer loop
vertex 267.2970275879 287.8834228516 103.7608261108
vertex 271.4903869629 286.3581848145 101.1869201660
vertex 266.7107849121 285.5104064941 97.5764694214
endloop
endfacet
facet normal 0.002296 0.933552 -0.358435
outer loop
vertex 266.7107849121 285.5104064941 97.5764694214
vertex 261.7160949707 287.3037719727 102.2153167725
vertex 267.2970275879 287.8834228516 103.7608261108
endloop
endfacet
facet normal 0.735677 0.607976 -0.298571
outer loop
vertex 285.2428588867 283.0383605957 97.9954071045
vertex 280.8188171387 287.4338684082 96.0450820923
vertex 283.1444091797 288.0373840332 103.0042190552
endloop
endfacet
facet normal -0.223208 0.749226 -0.623569
outer loop
vertex 254.8866882324 293.4215698242 111.3093109131
vertex 257.9790344238 290.2263183594 106.3632507324
vertex 250.6039428711 288.5180969238 106.9507369995
endloop
endfacet
facet normal 0.009085 -0.015680 0.999836
outer loop
vertex 262.5070800781 298.6951599121 133.0581054688
vertex 261.8249206543 292.3439025879 132.9646911621
vertex 267.4281616211 294.2665710449 132.9439392090
endloop
endfacet
facet normal 0.857143 -0.236504 -0.457572
outer loop
vertex 287.2806091309 270.1485290527 103.1516799927
vertex 284.5165100098 271.8690185547 97.0845794678
vertex 287.7157592773 276.9050292969 100.4746475220
endloop
endfacet
facet normal 0.442119 -0.305378 -0.843371
outer loop
vertex 276.4361572266 272.7823181152 87.2515792847
vertex 282.5894470215 272.2004089355 90.6879959106
vertex 278.5768432617 266.6846313477 90.5816955566
endloop
endfacet
facet normal 0.897960 -0.386601 0.210253
outer loop
vertex 285.6389160156 260.9731750488 119.6531753540
vertex 288.5124206543 265.5169982910 115.7357711792
vertex 288.2414550781 267.9213867188 121.3140335083
endloop
endfacet
facet normal 0.035080 0.961474 -0.272649
outer loop
vertex 259.1625366211 302.1873779297 124.7458190918
vertex 253.6000671387 301.7645874023 122.5392379761
vertex 255.2644195557 303.2537536621 128.0048065186
endloop
endfacet
facet normal 0.007719 0.978330 -0.206906
outer loop
vertex 259.1625366211 302.1873779297 124.7458190918
vertex 258.6075439453 300.9041748047 118.6576919556
vertex 253.6000671387 301.7645874023 122.5392379761
endloop
endfacet
facet normal -0.098286 0.993728 -0.053335
outer loop
vertex 283.1444091797 288.0373840332 103.0042190552
vertex 280.8188171387 287.4338684082 96.0450820923
vertex 276.8060913086 287.3347473145 101.5933532715
endloop
endfacet
facet normal -0.008951 -0.005623 0.999944
outer loop
vertex 268.3399353027 300.1342773438 132.9850921631
vertex 267.4281616211 294.2665710449 132.9439392090
vertex 273.5172729492 295.8699035645 133.0074615479
endloop
endfacet
facet normal 0.097162 0.067850 0.992953
outer loop
vertex 257.9046020508 302.7779541016 133.2294769287
vertex 262.5070800781 298.6951599121 133.0581054688
vertex 262.6666564941 306.4747009277 132.5109100342
endloop
endfacet
facet normal -0.374128 0.681216 -0.629263
outer loop
vertex 279.4208679199 294.3021545410 110.9276428223
vertex 283.3184204102 292.8967895508 107.0889663696
vertex 278.3497009277 289.9841918945 106.8900680542
endloop
endfacet
facet normal -0.102363 0.826966 -0.552856
outer loop
vertex 278.3497009277 289.9841918945 106.8900680542
vertex 272.6105651855 288.5283813477 105.7750701904
vertex 273.6784667969 291.9971618652 110.7659606934
endloop
endfacet
facet normal -0.665232 -0.746597 -0.007635
outer loop
vertex 254.5069732666 258.5311279297 114.9101257324
vertex 250.3795623779 262.1668395996 119.0074920654
vertex 249.8891143799 262.6712951660 112.4094161987
endloop
endfacet
facet normal 0.330965 -0.898474 0.288455
outer loop
vertex 279.7441101074 257.4409179688 115.4145126343
vertex 285.6389160156 260.9731750488 119.6531753540
vertex 278.3554077148 259.3777770996 123.0406951904
endloop
endfacet
facet normal -0.497315 -0.859153 -0.120559
outer loop
vertex 254.5069732666 258.5311279297 114.9101257324
vertex 253.9576263428 259.7941284180 108.1757354736
vertex 260.1092224121 255.9325561523 110.3188781738
endloop
endfacet
facet normal 0.527350 -0.741586 -0.414671
outer loop
vertex 275.7238769531 260.3853454590 98.2961502075
vertex 278.9510498047 263.8972167969 96.1196975708
vertex 279.8481140137 261.5231018066 101.5062942505
endloop
endfacet
facet normal 0.084198 -0.996372 -0.012375
outer loop
vertex 266.2623291016 254.9898376465 108.7917785645
vertex 272.8494567871 255.5283966064 110.2478256226
vertex 266.2056274414 254.9112243652 114.7348327637
endloop
endfacet
facet normal 0.053837 -0.063922 0.996502
outer loop
vertex 274.6666259766 301.3078918457 133.2941894531
vertex 273.5172729492 295.8699035645 133.0074615479
vertex 279.8518066406 298.1421203613 132.8109741211
endloop
endfacet
facet normal -0.001435 0.014136 0.999899
outer loop
vertex 268.5816955566 282.6561889648 132.9861297607
vertex 261.6005249023 285.9708862305 132.9292602539
vertex 261.2293395996 279.0032653809 133.0272216797
endloop
endfacet
facet normal -0.635437 0.691103 0.344379
outer loop
vertex 247.3148651123 300.0343933105 121.5809707642
vertex 242.9937438965 296.5698852539 120.5603408813
vertex 245.2245330811 295.7858886719 126.2498397827
endloop
endfacet
facet normal 0.566196 -0.817394 -0.106252
outer loop
vertex 285.2731018066 261.6935119629 112.1622848511
vertex 285.6389160156 260.9731750488 119.6531753540
vertex 279.7441101074 257.4409179688 115.4145126343
endloop
endfacet
facet normal -0.230333 0.615611 -0.753638
outer loop
vertex 246.1978607178 296.9493103027 116.7675247192
vertex 252.2946624756 298.4257812500 116.1102371216
vertex 248.4095458984 293.1088256836 112.9544601440
endloop
endfacet
facet normal -0.758801 -0.575968 -0.304107
outer loop
vertex 249.8891143799 262.6712951660 112.4094161987
vertex 247.1237640381 267.6773986816 109.8281097412
vertex 250.6747741699 264.3840026855 107.2053070068
endloop
endfacet
facet normal 0.055152 0.838945 -0.541414
outer loop
vertex 261.7160949707 287.3037719727 102.2153167725
vertex 255.4708404541 287.0691528320 101.2155990601
vertex 257.9790344238 290.2263183594 106.3632507324
endloop
endfacet
facet normal 0.581775 0.050176 0.811801
outer loop
vertex 293.0957946777 295.2384948730 124.4536514282
vertex 288.5876770020 291.5539550781 127.9121246338
vertex 293.4602355957 288.7729187012 124.5921096802
endloop
endfacet
facet normal 0.527937 0.140281 0.837618
outer loop
vertex 288.5876770020 291.5539550781 127.9121246338
vertex 293.0957946777 295.2384948730 124.4536514282
vertex 287.9397888184 297.5450439453 127.3171005249
endloop
endfacet
facet normal 0.549720 0.734217 0.398414
outer loop
vertex 287.9397888184 297.5450439453 127.3171005249
vertex 293.0957946777 295.2384948730 124.4536514282
vertex 289.3479919434 299.5205688477 121.7335662842
endloop
endfacet
facet normal -0.967849 -0.114605 -0.223908
outer loop
vertex 241.0470733643 286.1861877441 117.6625366211
vertex 242.5042877197 281.3961486816 113.8154373169
vertex 241.4013214111 280.7699890137 118.9034881592
endloop
endfacet
facet normal 0.059943 0.707047 -0.704622
outer loop
vertex 254.8866882324 293.4215698242 111.3093109131
vertex 252.2946624756 298.4257812500 116.1102371216
vertex 258.2144165039 296.5812377930 114.7629470825
endloop
endfacet
facet normal 0.907801 -0.235959 -0.346728
outer loop
vertex 291.0141601563 275.8437805176 108.4659194946
vertex 292.4492797852 270.7190246582 115.7109222412
vertex 289.3150024414 267.4264526367 109.7454681396
endloop
endfacet
facet normal -0.014397 0.987766 0.155279
outer loop
vertex 274.5548706055 303.3514099121 125.9082946777
vertex 280.2624816895 302.9633483887 128.9059906006
vertex 279.6468200684 303.9703369141 122.4432144165
endloop
endfacet
facet normal -0.357149 -0.859574 -0.365482
outer loop
vertex 259.0244445801 259.1304626465 103.8577880859
vertex 263.6225585938 256.5874328613 105.3454742432
vertex 260.1092224121 255.9325561523 110.3188781738
endloop
endfacet
facet normal -0.291036 -0.308795 0.905507
outer loop
vertex 254.7781677246 276.4467468262 132.8672027588
vertex 249.5358123779 280.2821960449 132.4902496338
vertex 249.4555206299 274.3086853027 130.4273529053
endloop
endfacet
facet normal -0.699951 -0.224703 0.677921
outer loop
vertex 249.4555206299 274.3086853027 130.4273529053
vertex 249.5358123779 280.2821960449 132.4902496338
vertex 245.5599517822 278.3624267578 127.7488403320
endloop
endfacet
facet normal 0.002128 0.007674 0.999968
outer loop
vertex 268.5816955566 282.6561889648 132.9861297607
vertex 266.9597167969 274.5708312988 133.0516357422
vertex 274.2916259766 276.5270080566 133.0210113525
endloop
endfacet
facet normal -0.075065 0.737402 -0.671270
outer loop
vertex 263.7781677246 300.0428771973 121.8739089966
vertex 259.1625366211 302.1873779297 124.7458190918
vertex 263.8878784180 304.0942687988 126.3121871948
endloop
endfacet
facet normal 0.009191 -0.005885 0.999940
outer loop
vertex 261.8249206543 292.3439025879 132.9646911621
vertex 261.6005249023 285.9708862305 132.9292602539
vertex 266.3011474609 288.9649963379 132.9036712646
endloop
endfacet
facet normal -0.834069 0.398109 0.381887
outer loop
vertex 241.3627319336 291.1184082031 122.6811523438
vertex 245.2245330811 295.7858886719 126.2498397827
vertex 242.9937438965 296.5698852539 120.5603408813
endloop
endfacet
facet normal -0.935395 -0.127956 -0.329641
outer loop
vertex 251.3037414551 277.7615356445 97.1999588013
vertex 251.3283843994 272.7481689453 99.0760650635
vertex 249.4765319824 276.2070007324 102.9882736206
endloop
endfacet
facet normal 0.440565 0.540679 0.716637
outer loop
vertex 284.8440856934 294.8847045898 132.1995086670
vertex 283.7538452148 299.3840637207 129.4751129150
vertex 279.8518066406 298.1421203613 132.8109741211
endloop
endfacet
facet normal 0.029249 0.004890 0.999560
outer loop
vertex 279.8518066406 298.1421203613 132.8109741211
vertex 273.5172729492 295.8699035645 133.0074615479
vertex 278.7490844727 291.7770996094 132.8743896484
endloop
endfacet
facet normal -0.996252 -0.021491 0.083784
outer loop
vertex 241.6702270508 283.3927917480 124.3558502197
vertex 241.3627319336 291.1184082031 122.6811523438
vertex 241.0470733643 286.1861877441 117.6625366211
endloop
endfacet
facet normal 0.074861 -0.668288 0.740126
outer loop
vertex 270.9043579102 259.1197204590 125.6545562744
vertex 268.4201965332 263.9603271484 130.2766113281
vertex 264.1956787109 259.8973083496 127.0352325439
endloop
endfacet
facet normal -0.607668 0.507953 -0.610511
outer loop
vertex 248.4095458984 293.1088256836 112.9544601440
vertex 250.6039428711 288.5180969238 106.9507369995
vertex 244.6080780029 287.4097900391 111.9965591431
endloop
endfacet
facet normal -0.198415 0.742247 -0.640079
outer loop
vertex 254.8866882324 293.4215698242 111.3093109131
vertex 250.6039428711 288.5180969238 106.9507369995
vertex 248.4095458984 293.1088256836 112.9544601440
endloop
endfacet
facet normal 0.047210 0.561569 -0.826082
outer loop
vertex 259.4122009277 307.7247619629 128.5243988037
vertex 263.8878784180 304.0942687988 126.3121871948
vertex 259.1625366211 302.1873779297 124.7458190918
endloop
endfacet
facet normal -0.311065 -0.636815 0.705482
outer loop
vertex 258.1212768555 261.3123474121 126.9146804810
vertex 261.7550354004 264.3889160156 131.2940216064
vertex 255.6221618652 266.1769714355 130.2038879395
endloop
endfacet
facet normal -0.263282 0.890186 -0.371821
outer loop
vertex 274.4193725586 300.8719177246 120.7306823730
vertex 278.8460998535 301.0372009277 117.9918365479
vertex 274.6657409668 298.3323364258 114.4761657715
endloop
endfacet
facet normal -0.496521 -0.834179 0.240027
outer loop
vertex 255.8471221924 259.5909118652 121.3654403687
vertex 250.3795623779 262.1668395996 119.0074920654
vertex 254.5069732666 258.5311279297 114.9101257324
endloop
endfacet
facet normal 0.751967 -0.622089 -0.218061
outer loop
vertex 285.2731018066 261.6935119629 112.1622848511
vertex 284.9177551270 263.6942138672 105.2292785645
vertex 289.3150024414 267.4264526367 109.7454681396
endloop
endfacet
facet normal -0.387338 0.920615 -0.049373
outer loop
vertex 253.8100738525 283.2113037109 96.1920089722
vertex 259.5904541016 285.6682739258 96.6569061279
vertex 256.3874206543 284.0249023438 91.1425552368
endloop
endfacet
facet normal -0.299312 0.801991 -0.516936
outer loop
vertex 255.4708404541 287.0691528320 101.2155990601
vertex 259.5904541016 285.6682739258 96.6569061279
vertex 253.8100738525 283.2113037109 96.1920089722
endloop
endfacet
facet normal 0.801871 -0.589756 -0.095871
outer loop
vertex 285.2731018066 261.6935119629 112.1622848511
vertex 288.5124206543 265.5169982910 115.7357711792
vertex 285.6389160156 260.9731750488 119.6531753540
endloop
endfacet
facet normal -0.401646 -0.043967 0.914739
outer loop
vertex 249.4555206299 274.3086853027 130.4273529053
vertex 253.4707946777 270.9562072754 132.0292510986
vertex 254.7781677246 276.4467468262 132.8672027588
endloop
endfacet
facet normal -0.613985 -0.414363 0.671808
outer loop
vertex 253.4707946777 270.9562072754 132.0292510986
vertex 249.4555206299 274.3086853027 130.4273529053
vertex 250.4393615723 268.8358459473 127.9509353638
endloop
endfacet
facet normal -0.474844 0.467101 -0.745882
outer loop
vertex 246.1978607178 296.9493103027 116.7675247192
vertex 248.4095458984 293.1088256836 112.9544601440
vertex 242.7469940186 292.5553894043 116.2127761841
endloop
endfacet
facet normal 0.866304 0.277326 -0.415461
outer loop
vertex 291.2125244141 291.8934326172 114.3691482544
vertex 294.8357543945 286.3771362305 118.2419509888
vertex 292.1243286133 284.4016418457 111.2695083618
endloop
endfacet
facet normal 0.164659 0.677394 -0.716955
outer loop
vertex 274.6657409668 298.3323364258 114.4761657715
vertex 278.8460998535 301.0372009277 117.9918365479
vertex 281.5791320801 297.5184631348 115.2949676514
endloop
endfacet
facet normal 0.878229 0.174031 -0.445452
outer loop
vertex 285.2428588867 283.0383605957 97.9954071045
vertex 287.7157592773 276.9050292969 100.4746475220
vertex 284.3405761719 277.6011962891 94.0922622681
endloop
endfacet
facet normal 0.624135 -0.741582 -0.245992
outer loop
vertex 280.0793762207 258.7973327637 107.7156448364
vertex 284.9177551270 263.6942138672 105.2292785645
vertex 285.2731018066 261.6935119629 112.1622848511
endloop
endfacet
facet normal -0.578468 -0.368224 -0.727864
outer loop
vertex 256.7725524902 267.7172241211 92.1382293701
vertex 260.4945068359 269.0641174316 88.4988250732
vertex 261.6620178223 263.7637023926 90.2524032593
endloop
endfacet
facet normal -0.004850 0.070263 0.997517
outer loop
vertex 262.5070800781 298.6951599121 133.0581054688
vertex 268.3399353027 300.1342773438 132.9850921631
vertex 262.6666564941 306.4747009277 132.5109100342
endloop
endfacet
facet normal -0.160357 -0.227617 -0.960456
outer loop
vertex 256.5850524902 273.1525573730 88.1826324463
vertex 262.9215393066 273.5596008301 87.0282287598
vertex 260.4945068359 269.0641174316 88.4988250732
endloop
endfacet
facet normal 0.033061 -0.021711 -0.999218
outer loop
vertex 273.2410583496 279.0554809570 87.0095672607
vertex 276.4361572266 272.7823181152 87.2515792847
vertex 269.4636230469 273.2171630859 87.0114364624
endloop
endfacet
facet normal 0.798223 0.144400 0.584798
outer loop
vertex 284.8440856934 294.8847045898 132.1995086670
vertex 288.5876770020 291.5539550781 127.9121246338
vertex 287.9397888184 297.5450439453 127.3171005249
endloop
endfacet
facet normal -0.249510 -0.293096 0.922952
outer loop
vertex 255.6221618652 266.1769714355 130.2038879395
vertex 261.7550354004 264.3889160156 131.2940216064
vertex 259.8718261719 271.3200378418 132.9859924316
endloop
endfacet
facet normal 0.165227 0.643202 -0.747657
outer loop
vertex 261.8759460449 292.2420043945 111.8391189575
vertex 254.8866882324 293.4215698242 111.3093109131
vertex 258.2144165039 296.5812377930 114.7629470825
endloop
endfacet
facet normal 0.753007 0.461790 -0.468754
outer loop
vertex 292.1243286133 284.4016418457 111.2695083618
vertex 288.6523437500 283.1948547363 104.5032348633
vertex 287.4679870605 289.2455749512 108.5615386963
endloop
endfacet
facet normal -0.877538 -0.171837 -0.447659
outer loop
vertex 251.3283843994 272.7481689453 99.0760650635
vertex 251.3037414551 277.7615356445 97.1999588013
vertex 253.7592773438 272.9321594238 94.2401809692
endloop
endfacet
facet normal 0.637534 0.482227 -0.600840
outer loop
vertex 283.3184204102 292.8967895508 107.0889663696
vertex 287.4679870605 289.2455749512 108.5615386963
vertex 283.1444091797 288.0373840332 103.0042190552
endloop
endfacet
facet normal -0.943489 -0.262067 0.202852
outer loop
vertex 242.9399566650 276.9661560059 122.2603988647
vertex 241.8883514404 276.2771301270 116.4790420532
vertex 243.8855743408 271.4602050781 119.5453414917
endloop
endfacet
facet normal -0.152843 0.916952 -0.368563
outer loop
vertex 273.7511901855 286.0469970703 95.9918060303
vertex 269.9449462891 283.4735107422 91.1676483154
vertex 266.7107849121 285.5104064941 97.5764694214
endloop
endfacet
facet normal 0.925351 -0.248733 0.286107
outer loop
vertex 291.3564453125 274.4739074707 122.5098800659
vertex 292.4492797852 270.7190246582 115.7109222412
vertex 294.3391113281 278.6781616211 116.5181045532
endloop
endfacet
facet normal -0.847399 0.017616 -0.530664
outer loop
vertex 242.5042877197 281.3961486816 113.8154373169
vertex 246.2870330811 280.9954528809 107.7615966797
vertex 243.7512969971 276.7628479004 111.6703186035
endloop
endfacet
facet normal -0.895086 -0.141905 -0.422709
outer loop
vertex 253.7592773438 272.9321594238 94.2401809692
vertex 254.1140594482 278.5661926270 91.5975570679
vertex 256.5850524902 273.1525573730 88.1826324463
endloop
endfacet
facet normal -0.140326 -0.116642 0.983211
outer loop
vertex 259.8718261719 271.3200378418 132.9859924316
vertex 254.7781677246 276.4467468262 132.8672027588
vertex 253.4707946777 270.9562072754 132.0292510986
endloop
endfacet
facet normal 0.439427 0.542479 0.715975
outer loop
vertex 279.8518066406 298.1421203613 132.8109741211
vertex 283.7538452148 299.3840637207 129.4751129150
vertex 280.2624816895 302.9633483887 128.9059906006
endloop
endfacet
facet normal -0.741622 -0.484757 0.463689
outer loop
vertex 247.9282531738 267.2881469727 122.3166885376
vertex 250.4393615723 268.8358459473 127.9509353638
vertex 246.2824249268 272.6624145508 125.3027801514
endloop
endfacet
facet normal 0.678505 0.119771 0.724766
outer loop
vertex 289.1758117676 285.0315246582 128.4393615723
vertex 288.5876770020 291.5539550781 127.9121246338
vertex 284.5230407715 288.1757812500 132.2755737305
endloop
endfacet
facet normal 0.886492 0.036134 -0.461331
outer loop
vertex 288.6523437500 283.1948547363 104.5032348633
vertex 292.1243286133 284.4016418457 111.2695083618
vertex 291.0141601563 275.8437805176 108.4659194946
endloop
endfacet
facet normal 0.883892 0.448059 -0.134085
outer loop
vertex 294.0550231934 292.0115966797 119.9937515259
vertex 291.9246520996 295.8905029297 118.9121551514
vertex 293.0957946777 295.2384948730 124.4536514282
endloop
endfacet
facet normal -0.478673 0.446372 -0.756058
outer loop
vertex 242.7469940186 292.5553894043 116.2127761841
vertex 248.4095458984 293.1088256836 112.9544601440
vertex 244.6080780029 287.4097900391 111.9965591431
endloop
endfacet
facet normal 0.702783 -0.085094 0.706296
outer loop
vertex 289.1758117676 285.0315246582 128.4393615723
vertex 284.7518920898 281.3364257813 132.3961181641
vertex 288.7427673340 278.1149902344 128.0369720459
endloop
endfacet
facet normal -0.350677 -0.362868 -0.863338
outer loop
vertex 261.6620178223 263.7637023926 90.2524032593
vertex 260.4945068359 269.0641174316 88.4988250732
vertex 265.5859069824 267.8742675781 86.9308547974
endloop
endfacet
facet normal 0.779825 0.501826 0.374225
outer loop
vertex 285.4012451172 302.9085083008 125.4147949219
vertex 287.9397888184 297.5450439453 127.3171005249
vertex 289.3479919434 299.5205688477 121.7335662842
endloop
endfacet
facet normal 0.637124 -0.670323 -0.380446
outer loop
vertex 278.5768432617 266.6846313477 90.5816955566
vertex 282.1460571289 267.8442077637 94.5159225464
vertex 278.9510498047 263.8972167969 96.1196975708
endloop
endfacet
facet normal -0.149463 0.901049 -0.407150
outer loop
vertex 272.6105651855 288.5283813477 105.7750701904
vertex 278.3497009277 289.9841918945 106.8900680542
vertex 276.8060913086 287.3347473145 101.5933532715
endloop
endfacet
facet normal -0.744873 0.029902 0.666536
outer loop
vertex 246.1983489990 283.6091003418 129.4064483643
vertex 245.4087219238 289.3693237305 128.2656097412
vertex 241.6702270508 283.3927917480 124.3558502197
endloop
endfacet
facet normal 0.560724 0.524039 0.641071
outer loop
vertex 287.9397888184 297.5450439453 127.3171005249
vertex 283.7538452148 299.3840637207 129.4751129150
vertex 284.8440856934 294.8847045898 132.1995086670
endloop
endfacet
facet normal -0.331267 0.614047 -0.716385
outer loop
vertex 278.3497009277 289.9841918945 106.8900680542
vertex 283.3184204102 292.8967895508 107.0889663696
vertex 283.1444091797 288.0373840332 103.0042190552
endloop
endfacet
facet normal 0.062470 0.867489 -0.493518
outer loop
vertex 267.8809814453 290.7107238770 108.8044815063
vertex 267.2970275879 287.8834228516 103.7608261108
vertex 263.3660888672 289.7608642578 106.5633239746
endloop
endfacet
facet normal 0.299589 -0.952908 -0.047052
outer loop
vertex 272.8494567871 255.5283966064 110.2478256226
vertex 279.7441101074 257.4409179688 115.4145126343
vertex 272.5588989258 254.9960632324 119.1788711548
endloop
endfacet
facet normal -0.956913 -0.211240 0.199236
outer loop
vertex 241.8883514404 276.2771301270 116.4790420532
vertex 242.9399566650 276.9661560059 122.2603988647
vertex 241.4013214111 280.7699890137 118.9034881592
endloop
endfacet
facet normal 0.089243 0.050641 0.994722
outer loop
vertex 277.6208496094 283.9625854492 132.9021911621
vertex 280.3866271973 277.6537170410 132.9752349854
vertex 284.7518920898 281.3364257813 132.3961181641
endloop
endfacet
facet normal -0.842113 -0.465078 -0.273034
outer loop
vertex 243.7937164307 271.6730346680 113.2928466797
vertex 247.1237640381 267.6773986816 109.8281097412
vertex 245.8545074463 266.2904357910 116.1053771973
endloop
endfacet
facet normal -0.113368 -0.398626 0.910080
outer loop
vertex 253.4707946777 270.9562072754 132.0292510986
vertex 255.6221618652 266.1769714355 130.2038879395
vertex 259.8718261719 271.3200378418 132.9859924316
endloop
endfacet
facet normal 0.096717 -0.010423 0.995257
outer loop
vertex 284.5230407715 288.1757812500 132.2755737305
vertex 278.7490844727 291.7770996094 132.8743896484
vertex 277.6208496094 283.9625854492 132.9021911621
endloop
endfacet
facet normal -0.642672 0.176884 -0.745442
outer loop
vertex 254.1140594482 278.5661926270 91.5975570679
vertex 259.4082031250 279.2279968262 87.1903381348
vertex 256.5850524902 273.1525573730 88.1826324463
endloop
endfacet
facet normal 0.435114 0.679734 -0.590455
outer loop
vertex 285.0778198242 293.8536376953 112.1050186157
vertex 291.2125244141 291.8934326172 114.3691482544
vertex 287.4679870605 289.2455749512 108.5615386963
endloop
endfacet
facet normal 0.559927 -0.819798 -0.120053
outer loop
vertex 279.7441101074 257.4409179688 115.4145126343
vertex 280.0793762207 258.7973327637 107.7156448364
vertex 285.2731018066 261.6935119629 112.1622848511
endloop
endfacet
facet normal -0.198671 -0.805254 0.558656
outer loop
vertex 258.1212768555 261.3123474121 126.9146804810
vertex 260.6415405273 258.1572265625 123.2631225586
vertex 264.1956787109 259.8973083496 127.0352325439
endloop
endfacet
facet normal -0.830792 -0.270694 -0.486322
outer loop
vertex 246.2752380371 273.6907653809 107.9305267334
vertex 247.1237640381 267.6773986816 109.8281097412
vertex 243.7937164307 271.6730346680 113.2928466797
endloop
endfacet
facet normal 0.894216 -0.343371 -0.287184
outer loop
vertex 284.5165100098 271.8690185547 97.0845794678
vertex 282.1460571289 267.8442077637 94.5159225464
vertex 282.5894470215 272.2004089355 90.6879959106
endloop
endfacet
facet normal -0.136522 0.907982 -0.396145
outer loop
vertex 272.6105651855 288.5283813477 105.7750701904
vertex 276.8060913086 287.3347473145 101.5933532715
vertex 271.4903869629 286.3581848145 101.1869201660
endloop
endfacet
facet normal -0.169321 0.976656 -0.132183
outer loop
vertex 271.4903869629 286.3581848145 101.1869201660
vertex 276.8060913086 287.3347473145 101.5933532715
vertex 273.7511901855 286.0469970703 95.9918060303
endloop
endfacet
facet normal -0.410448 -0.861060 -0.300179
outer loop
vertex 265.9067382813 260.4447631836 94.3046951294
vertex 264.4791870117 258.9405822754 100.5713119507
vertex 259.1080017090 262.6731872559 97.2086715698
endloop
endfacet
facet normal 0.082833 -0.933381 -0.349197
outer loop
vertex 265.9067382813 260.4447631836 94.3046951294
vertex 273.2581176758 261.6283874512 92.8847503662
vertex 270.5509033203 259.1545715332 98.8549118042
endloop
endfacet
facet normal 0.189808 -0.934496 -0.301150
outer loop
vertex 270.5509033203 259.1545715332 98.8549118042
vertex 273.2581176758 261.6283874512 92.8847503662
vertex 275.7238769531 260.3853454590 98.2961502075
endloop
endfacet
facet normal 0.132836 -0.959603 -0.248025
outer loop
vertex 268.8182678223 256.5210571289 104.2481842041
vertex 275.0136718750 257.6761169434 103.0974502563
vertex 272.8494567871 255.5283966064 110.2478256226
endloop
endfacet
facet normal -0.743218 -0.575843 0.340634
outer loop
vertex 250.3795623779 262.1668395996 119.0074920654
vertex 247.9282531738 267.2881469727 122.3166885376
vertex 245.8545074463 266.2904357910 116.1053771973
endloop
endfacet
facet normal -0.551442 0.567588 -0.611355
outer loop
vertex 255.4708404541 287.0691528320 101.2155990601
vertex 250.4497528076 282.5997619629 101.5951766968
vertex 250.6039428711 288.5180969238 106.9507369995
endloop
endfacet
facet normal -0.254616 -0.958282 0.129873
outer loop
vertex 260.1092224121 255.9325561523 110.3188781738
vertex 266.2056274414 254.9112243652 114.7348327637
vertex 260.3736267090 256.8747558594 117.7892227173
endloop
endfacet
facet normal 0.632858 0.515807 -0.577437
outer loop
vertex 276.8222351074 285.4745788574 88.5203399658
vertex 282.4281616211 282.8042602539 92.2789916992
vertex 281.0930480957 278.6676635742 87.1206283569
endloop
endfacet
facet normal -0.259303 0.693172 -0.672513
outer loop
vertex 273.6784667969 291.9971618652 110.7659606934
vertex 279.4208679199 294.3021545410 110.9276428223
vertex 278.3497009277 289.9841918945 106.8900680542
endloop
endfacet
facet normal -0.184379 0.517934 -0.835314
outer loop
vertex 274.6657409668 298.3323364258 114.4761657715
vertex 279.4208679199 294.3021545410 110.9276428223
vertex 273.6784667969 291.9971618652 110.7659606934
endloop
endfacet
facet normal 0.806705 -0.452799 0.379737
outer loop
vertex 288.2414550781 267.9213867188 121.3140335083
vertex 292.4492797852 270.7190246582 115.7109222412
vertex 291.3564453125 274.4739074707 122.5098800659
endloop
endfacet
facet normal 0.364041 -0.559800 0.744378
outer loop
vertex 275.7247924805 263.9603271484 129.1660919189
vertex 283.2687683105 264.9719238281 126.2374496460
vertex 280.2173767090 270.8905639648 132.1807556152
endloop
endfacet
facet normal 0.057262 0.897017 -0.438271
outer loop
vertex 272.6105651855 288.5283813477 105.7750701904
vertex 271.4903869629 286.3581848145 101.1869201660
vertex 267.2970275879 287.8834228516 103.7608261108
endloop
endfacet
facet normal -0.623221 -0.637561 0.452894
outer loop
vertex 250.4393615723 268.8358459473 127.9509353638
vertex 247.9282531738 267.2881469727 122.3166885376
vertex 252.9432067871 264.0943603516 124.7215957642
endloop
endfacet
facet normal 0.006149 -0.005778 0.999964
outer loop
vertex 256.0737609863 289.8055725098 132.9853973389
vertex 261.6005249023 285.9708862305 132.9292602539
vertex 261.8249206543 292.3439025879 132.9646911621
endloop
endfacet
facet normal -0.777170 -0.479680 -0.407325
outer loop
vertex 253.8621520996 267.9759826660 98.0328140259
vertex 254.0827941895 263.5750122070 102.7945632935
vertex 250.0323028564 269.3180541992 103.7596206665
endloop
endfacet
facet normal -0.105324 0.897969 -0.427268
outer loop
vertex 269.1691589355 301.6932983398 123.7511291504
vertex 274.5548706055 303.3514099121 125.9082946777
vertex 274.4193725586 300.8719177246 120.7306823730
endloop
endfacet
facet normal 0.017874 0.000976 0.999840
outer loop
vertex 278.7490844727 291.7770996094 132.8743896484
vertex 272.0374145508 289.5847473145 132.9965057373
vertex 277.6208496094 283.9625854492 132.9021911621
endloop
endfacet
facet normal 0.654721 -0.181721 0.733702
outer loop
vertex 288.7427673340 278.1149902344 128.0369720459
vertex 284.7518920898 281.3364257813 132.3961181641
vertex 284.5141296387 275.7529907227 131.2254180908
endloop
endfacet
facet normal -0.643071 0.695166 -0.321255
outer loop
vertex 250.4497528076 282.5997619629 101.5951766968
vertex 255.4708404541 287.0691528320 101.2155990601
vertex 253.8100738525 283.2113037109 96.1920089722
endloop
endfacet
facet normal -0.218035 0.018986 0.975756
outer loop
vertex 256.9911193848 296.3577575684 133.0628967285
vertex 250.4016723633 294.3029174805 131.6304473877
vertex 256.0737609863 289.8055725098 132.9853973389
endloop
endfacet
facet normal -0.956281 -0.242321 0.163728
outer loop
vertex 241.4013214111 280.7699890137 118.9034881592
vertex 242.9399566650 276.9661560059 122.2603988647
vertex 241.6702270508 283.3927917480 124.3558502197
endloop
endfacet
facet normal 0.728606 -0.360777 0.582214
outer loop
vertex 291.3564453125 274.4739074707 122.5098800659
vertex 288.7427673340 278.1149902344 128.0369720459
vertex 286.3366088867 271.8815307617 127.1854782104
endloop
endfacet
facet normal 0.555048 0.543723 0.629513
outer loop
vertex 262.6666564941 306.4747009277 132.5109100342
vertex 268.3399353027 300.1342773438 132.9850921631
vertex 269.3305053711 305.1003723145 127.8223648071
endloop
endfacet
facet normal 0.711730 0.340766 -0.614263
outer loop
vertex 292.1243286133 284.4016418457 111.2695083618
vertex 287.4679870605 289.2455749512 108.5615386963
vertex 291.2125244141 291.8934326172 114.3691482544
endloop
endfacet
facet normal -0.212204 -0.949103 0.232752
outer loop
vertex 265.7234497070 256.6082458496 121.5799789429
vertex 260.6415405273 258.1572265625 123.2631225586
vertex 260.3736267090 256.8747558594 117.7892227173
endloop
endfacet
facet normal 0.364613 -0.919619 -0.146145
outer loop
vertex 280.0793762207 258.7973327637 107.7156448364
vertex 279.7441101074 257.4409179688 115.4145126343
vertex 272.8494567871 255.5283966064 110.2478256226
endloop
endfacet
facet normal -0.801052 0.412981 -0.433315
outer loop
vertex 246.2870330811 280.9954528809 107.7615966797
vertex 250.6039428711 288.5180969238 106.9507369995
vertex 250.4497528076 282.5997619629 101.5951766968
endloop
endfacet
facet normal -0.361098 -0.903862 0.229440
outer loop
vertex 260.3736267090 256.8747558594 117.7892227173
vertex 260.6415405273 258.1572265625 123.2631225586
vertex 255.8471221924 259.5909118652 121.3654403687
endloop
endfacet
facet normal -0.800651 -0.130077 -0.584840
outer loop
vertex 246.2752380371 273.6907653809 107.9305267334
vertex 249.4765319824 276.2070007324 102.9882736206
vertex 250.0323028564 269.3180541992 103.7596206665
endloop
endfacet
facet normal 0.777308 0.622499 -0.091035
outer loop
vertex 293.0957946777 295.2384948730 124.4536514282
vertex 291.9246520996 295.8905029297 118.9121551514
vertex 289.3479919434 299.5205688477 121.7335662842
endloop
endfacet
facet normal 0.860555 0.256129 -0.440275
outer loop
vertex 294.0550231934 292.0115966797 119.9937515259
vertex 294.8357543945 286.3771362305 118.2419509888
vertex 291.2125244141 291.8934326172 114.3691482544
endloop
endfacet
facet normal 0.560146 0.499511 0.660852
outer loop
vertex 285.4012451172 302.9085083008 125.4147949219
vertex 283.7538452148 299.3840637207 129.4751129150
vertex 287.9397888184 297.5450439453 127.3171005249
endloop
endfacet
facet normal -0.236349 0.875378 -0.421726
outer loop
vertex 250.6039428711 288.5180969238 106.9507369995
vertex 257.9790344238 290.2263183594 106.3632507324
vertex 255.4708404541 287.0691528320 101.2155990601
endloop
endfacet
facet normal 0.755587 -0.322829 0.569974
outer loop
vertex 293.5079650879 281.6995849609 123.7502822876
vertex 288.7427673340 278.1149902344 128.0369720459
vertex 291.3564453125 274.4739074707 122.5098800659
endloop
endfacet
facet normal 0.181664 0.873863 -0.450956
outer loop
vertex 261.8759460449 292.2420043945 111.8391189575
vertex 257.9790344238 290.2263183594 106.3632507324
vertex 254.8866882324 293.4215698242 111.3093109131
endloop
endfacet
facet normal 0.386235 0.890486 0.240535
outer loop
vertex 269.3305053711 305.1003723145 127.8223648071
vertex 274.6666259766 301.3078918457 133.2941894531
vertex 274.5548706055 303.3514099121 125.9082946777
endloop
endfacet
facet normal 0.299030 -0.208004 0.931298
outer loop
vertex 284.5141296387 275.7529907227 131.2254180908
vertex 284.7518920898 281.3364257813 132.3961181641
vertex 280.3866271973 277.6537170410 132.9752349854
endloop
endfacet
facet normal -0.146819 -0.962465 0.228267
outer loop
vertex 266.2056274414 254.9112243652 114.7348327637
vertex 272.5588989258 254.9960632324 119.1788711548
vertex 265.7234497070 256.6082458496 121.5799789429
endloop
endfacet
facet normal 0.053653 -0.996893 -0.057674
outer loop
vertex 272.8494567871 255.5283966064 110.2478256226
vertex 272.5588989258 254.9960632324 119.1788711548
vertex 266.2056274414 254.9112243652 114.7348327637
endloop
endfacet
facet normal 0.028411 -0.094028 -0.995164
outer loop
vertex 269.4636230469 273.2171630859 87.0114364624
vertex 276.4361572266 272.7823181152 87.2515792847
vertex 272.1677856445 266.9973754883 87.6763076782
endloop
endfacet
facet normal 0.293386 0.929694 -0.222697
outer loop
vertex 259.1625366211 302.1873779297 124.7458190918
vertex 263.7781677246 300.0428771973 121.8739089966
vertex 258.6075439453 300.9041748047 118.6576919556
endloop
endfacet
facet normal 0.423180 0.772498 -0.473461
outer loop
vertex 258.6075439453 300.9041748047 118.6576919556
vertex 263.7781677246 300.0428771973 121.8739089966
vertex 263.2974548340 297.0884399414 116.6238098145
endloop
endfacet
facet normal -0.173713 -0.079599 -0.981574
outer loop
vertex 259.4082031250 279.2279968262 87.1903381348
vertex 262.9215393066 273.5596008301 87.0282287598
vertex 256.5850524902 273.1525573730 88.1826324463
endloop
endfacet
facet normal 0.057482 0.656145 -0.752443
outer loop
vertex 263.1433715820 283.7482910156 91.4174728394
vertex 259.4082031250 279.2279968262 87.1903381348
vertex 256.3874206543 284.0249023438 91.1425552368
endloop
endfacet
facet normal -0.630196 0.066817 0.773556
outer loop
vertex 245.4087219238 289.3693237305 128.2656097412
vertex 246.1983489990 283.6091003418 129.4064483643
vertex 250.1113891602 286.7926025391 132.3193206787
endloop
endfacet
facet normal -0.167313 0.726383 0.666614
outer loop
vertex 274.6666259766 301.3078918457 133.2941894531
vertex 269.3305053711 305.1003723145 127.8223648071
vertex 268.3399353027 300.1342773438 132.9850921631
endloop
endfacet
facet normal -0.015723 -0.004252 0.999867
outer loop
vertex 266.3011474609 288.9649963379 132.9036712646
vertex 272.0374145508 289.5847473145 132.9965057373
vertex 267.4281616211 294.2665710449 132.9439392090
endloop
endfacet
facet normal -0.406369 -0.868032 -0.285280
outer loop
vertex 265.9067382813 260.4447631836 94.3046951294
vertex 259.1080017090 262.6731872559 97.2086715698
vertex 261.6620178223 263.7637023926 90.2524032593
endloop
endfacet
facet normal -0.011293 -0.844750 0.535042
outer loop
vertex 272.5588989258 254.9960632324 119.1788711548
vertex 270.9043579102 259.1197204590 125.6545562744
vertex 265.7234497070 256.6082458496 121.5799789429
endloop
endfacet
facet normal -0.822165 -0.316675 0.473035
outer loop
vertex 242.9399566650 276.9661560059 122.2603988647
vertex 245.5599517822 278.3624267578 127.7488403320
vertex 241.6702270508 283.3927917480 124.3558502197
endloop
endfacet
facet normal -0.736558 -0.120642 0.665528
outer loop
vertex 241.6702270508 283.3927917480 124.3558502197
vertex 245.5599517822 278.3624267578 127.7488403320
vertex 246.1983489990 283.6091003418 129.4064483643
endloop
endfacet
facet normal -0.007399 -0.004060 0.999964
outer loop
vertex 259.8718261719 271.3200378418 132.9859924316
vertex 266.9597167969 274.5708312988 133.0516357422
vertex 261.2293395996 279.0032653809 133.0272216797
endloop
endfacet
facet normal -0.365114 -0.903578 0.224140
outer loop
vertex 260.3736267090 256.8747558594 117.7892227173
vertex 255.8471221924 259.5909118652 121.3654403687
vertex 254.5069732666 258.5311279297 114.9101257324
endloop
endfacet
facet normal -0.106344 0.068487 -0.991968
outer loop
vertex 269.4636230469 273.2171630859 87.0114364624
vertex 266.4048767090 278.9783630371 87.7371139526
vertex 273.2410583496 279.0554809570 87.0095672607
endloop
endfacet
facet normal 0.435960 0.500336 -0.748066
outer loop
vertex 287.6903686523 297.5609436035 116.1071548462
vertex 291.2125244141 291.8934326172 114.3691482544
vertex 285.0778198242 293.8536376953 112.1050186157
endloop
endfacet
facet normal -0.634577 0.076293 0.769085
outer loop
vertex 246.1983489990 283.6091003418 129.4064483643
vertex 249.5358123779 280.2821960449 132.4902496338
vertex 250.1113891602 286.7926025391 132.3193206787
endloop
endfacet
facet normal 0.529521 -0.741716 -0.411661
outer loop
vertex 273.2581176758 261.6283874512 92.8847503662
vertex 278.9510498047 263.8972167969 96.1196975708
vertex 275.7238769531 260.3853454590 98.2961502075
endloop
endfacet
facet normal -0.829360 0.004510 -0.558697
outer loop
vertex 249.4765319824 276.2070007324 102.9882736206
vertex 246.2870330811 280.9954528809 107.7615966797
vertex 250.4497528076 282.5997619629 101.5951766968
endloop
endfacet
facet normal 0.024478 0.216067 -0.976072
outer loop
vertex 281.0930480957 278.6676635742 87.1206283569
vertex 273.2410583496 279.0554809570 87.0095672607
vertex 276.8222351074 285.4745788574 88.5203399658
endloop
endfacet
facet normal -0.194677 0.717442 -0.668863
outer loop
vertex 268.4071350098 295.2273254395 113.1403121948
vertex 261.8759460449 292.2420043945 111.8391189575
vertex 263.2974548340 297.0884399414 116.6238098145
endloop
endfacet
facet normal 0.006808 -0.009042 0.999936
outer loop
vertex 266.3011474609 288.9649963379 132.9036712646
vertex 267.4281616211 294.2665710449 132.9439392090
vertex 261.8249206543 292.3439025879 132.9646911621
endloop
endfacet
facet normal 0.080447 0.078280 -0.993680
outer loop
vertex 262.9215393066 273.5596008301 87.0282287598
vertex 259.4082031250 279.2279968262 87.1903381348
vertex 266.4048767090 278.9783630371 87.7371139526
endloop
endfacet
facet normal -0.320131 -0.133963 -0.937854
outer loop
vertex 262.9215393066 273.5596008301 87.0282287598
vertex 265.5859069824 267.8742675781 86.9308547974
vertex 260.4945068359 269.0641174316 88.4988250732
endloop
endfacet
facet normal 0.356646 -0.918995 -0.168086
outer loop
vertex 272.8494567871 255.5283966064 110.2478256226
vertex 275.0136718750 257.6761169434 103.0974502563
vertex 280.0793762207 258.7973327637 107.7156448364
endloop
endfacet
facet normal -0.838541 -0.268013 -0.474361
outer loop
vertex 246.2752380371 273.6907653809 107.9305267334
vertex 250.0323028564 269.3180541992 103.7596206665
vertex 247.1237640381 267.6773986816 109.8281097412
endloop
endfacet
facet normal 0.615377 -0.411718 0.672160
outer loop
vertex 284.5141296387 275.7529907227 131.2254180908
vertex 280.2173767090 270.8905639648 132.1807556152
vertex 286.3366088867 271.8815307617 127.1854782104
endloop
endfacet
facet normal 0.007438 -0.015503 0.999852
outer loop
vertex 262.5070800781 298.6951599121 133.0581054688
vertex 256.9911193848 296.3577575684 133.0628967285
vertex 261.8249206543 292.3439025879 132.9646911621
endloop
endfacet
facet normal -0.326444 0.815191 -0.478434
outer loop
vertex 279.6468200684 303.9703369141 122.4432144165
vertex 278.8460998535 301.0372009277 117.9918365479
vertex 274.4193725586 300.8719177246 120.7306823730
endloop
endfacet
facet normal -0.098432 0.989890 -0.102126
outer loop
vertex 273.7511901855 286.0469970703 95.9918060303
vertex 266.7107849121 285.5104064941 97.5764694214
vertex 271.4903869629 286.3581848145 101.1869201660
endloop
endfacet
facet normal -0.040596 -0.044052 0.998204
outer loop
vertex 273.5172729492 295.8699035645 133.0074615479
vertex 274.6666259766 301.3078918457 133.2941894531
vertex 268.3399353027 300.1342773438 132.9850921631
endloop
endfacet
facet normal 0.070556 -0.665879 0.742716
outer loop
vertex 261.7550354004 264.3889160156 131.2940216064
vertex 264.1956787109 259.8973083496 127.0352325439
vertex 268.4201965332 263.9603271484 130.2766113281
endloop
endfacet
facet normal 0.062504 0.828183 -0.556961
outer loop
vertex 279.6468200684 303.9703369141 122.4432144165
vertex 284.1058349609 301.4335021973 119.1714401245
vertex 278.8460998535 301.0372009277 117.9918365479
endloop
endfacet
facet normal 0.036659 0.765656 -0.642204
outer loop
vertex 269.3305053711 305.1003723145 127.8223648071
vertex 269.1691589355 301.6932983398 123.7511291504
vertex 263.8878784180 304.0942687988 126.3121871948
endloop
endfacet
facet normal 0.742122 -0.027920 0.669683
outer loop
vertex 288.5876770020 291.5539550781 127.9121246338
vertex 284.8440856934 294.8847045898 132.1995086670
vertex 284.5230407715 288.1757812500 132.2755737305
endloop
endfacet
facet normal -0.116955 0.011905 0.993066
outer loop
vertex 255.5532531738 283.0522766113 133.0050506592
vertex 256.0737609863 289.8055725098 132.9853973389
vertex 250.1113891602 286.7926025391 132.3193206787
endloop
endfacet
facet normal -0.517144 -0.694612 -0.500076
outer loop
vertex 254.0827941895 263.5750122070 102.7945632935
vertex 259.0244445801 259.1304626465 103.8577880859
vertex 253.9576263428 259.7941284180 108.1757354736
endloop
endfacet
facet normal -0.825962 -0.307456 0.472502
outer loop
vertex 242.9399566650 276.9661560059 122.2603988647
vertex 246.2824249268 272.6624145508 125.3027801514
vertex 245.5599517822 278.3624267578 127.7488403320
endloop
endfacet
facet normal 0.851818 -0.221629 -0.474643
outer loop
vertex 287.7157592773 276.9050292969 100.4746475220
vertex 284.5165100098 271.8690185547 97.0845794678
vertex 284.3405761719 277.6011962891 94.0922622681
endloop
endfacet
facet normal 0.558231 0.718589 -0.414738
outer loop
vertex 289.3479919434 299.5205688477 121.7335662842
vertex 291.9246520996 295.8905029297 118.9121551514
vertex 287.6903686523 297.5609436035 116.1071548462
endloop
endfacet
facet normal 0.467950 0.564567 0.679917
outer loop
vertex 285.4012451172 302.9085083008 125.4147949219
vertex 280.2624816895 302.9633483887 128.9059906006
vertex 283.7538452148 299.3840637207 129.4751129150
endloop
endfacet
facet normal 0.089164 0.701002 -0.707564
outer loop
vertex 281.5791320801 297.5184631348 115.2949676514
vertex 287.6903686523 297.5609436035 116.1071548462
vertex 285.0778198242 293.8536376953 112.1050186157
endloop
endfacet
facet normal 0.896127 -0.237851 -0.374677
outer loop
vertex 289.3150024414 267.4264526367 109.7454681396
vertex 287.2806091309 270.1485290527 103.1516799927
vertex 291.0141601563 275.8437805176 108.4659194946
endloop
endfacet
facet normal -0.562827 -0.695636 0.446448
outer loop
vertex 252.9432067871 264.0943603516 124.7215957642
vertex 255.8471221924 259.5909118652 121.3654403687
vertex 258.1212768555 261.3123474121 126.9146804810
endloop
endfacet
facet normal 0.406004 0.554060 0.726759
outer loop
vertex 280.2624816895 302.9633483887 128.9059906006
vertex 274.6666259766 301.3078918457 133.2941894531
vertex 279.8518066406 298.1421203613 132.8109741211
endloop
endfacet
facet normal 0.009399 -0.013143 0.999869
outer loop
vertex 256.9911193848 296.3577575684 133.0628967285
vertex 256.0737609863 289.8055725098 132.9853973389
vertex 261.8249206543 292.3439025879 132.9646911621
endloop
endfacet
facet normal 0.980030 0.079072 0.182454
outer loop
vertex 294.8357543945 286.3771362305 118.2419509888
vertex 294.0550231934 292.0115966797 119.9937515259
vertex 293.4602355957 288.7729187012 124.5921096802
endloop
endfacet
facet normal -0.548319 -0.502217 0.668674
outer loop
vertex 250.4393615723 268.8358459473 127.9509353638
vertex 255.6221618652 266.1769714355 130.2038879395
vertex 253.4707946777 270.9562072754 132.0292510986
endloop
endfacet
facet normal -0.001713 0.016322 -0.999865
outer loop
vertex 262.9215393066 273.5596008301 87.0282287598
vertex 269.4636230469 273.2171630859 87.0114364624
vertex 265.5859069824 267.8742675781 86.9308547974
endloop
endfacet
facet normal 0.343911 -0.675048 0.652714
outer loop
vertex 278.3554077148 259.3777770996 123.0406951904
vertex 283.2687683105 264.9719238281 126.2374496460
vertex 275.7247924805 263.9603271484 129.1660919189
endloop
endfacet
facet normal -0.771868 0.170279 0.612557
outer loop
vertex 241.3627319336 291.1184082031 122.6811523438
vertex 245.4087219238 289.3693237305 128.2656097412
vertex 245.2245330811 295.7858886719 126.2498397827
endloop
endfacet
facet normal -0.154955 -0.987814 -0.014543
outer loop
vertex 266.2056274414 254.9112243652 114.7348327637
vertex 260.1092224121 255.9325561523 110.3188781738
vertex 266.2623291016 254.9898376465 108.7917785645
endloop
endfacet
facet normal 0.892413 -0.214720 -0.396857
outer loop
vertex 291.0141601563 275.8437805176 108.4659194946
vertex 287.2806091309 270.1485290527 103.1516799927
vertex 287.7157592773 276.9050292969 100.4746475220
endloop
endfacet
facet normal 0.929367 -0.188479 -0.317415
outer loop
vertex 291.0141601563 275.8437805176 108.4659194946
vertex 294.3391113281 278.6781616211 116.5181045532
vertex 292.4492797852 270.7190246582 115.7109222412
endloop
endfacet
facet normal -0.255048 0.839880 -0.479116
outer loop
vertex 247.3148651123 300.0343933105 121.5809707642
vertex 252.2946624756 298.4257812500 116.1102371216
vertex 246.1978607178 296.9493103027 116.7675247192
endloop
endfacet
facet normal -0.862080 0.326736 -0.387378
outer loop
vertex 256.3874206543 284.0249023438 91.1425552368
vertex 254.1140594482 278.5661926270 91.5975570679
vertex 253.8100738525 283.2113037109 96.1920089722
endloop
endfacet
facet normal -0.222236 0.612590 -0.758515
outer loop
vertex 254.8866882324 293.4215698242 111.3093109131
vertex 248.4095458984 293.1088256836 112.9544601440
vertex 252.2946624756 298.4257812500 116.1102371216
endloop
endfacet
facet normal -0.852474 -0.328739 -0.406470
outer loop
vertex 253.8621520996 267.9759826660 98.0328140259
vertex 253.7592773438 272.9321594238 94.2401809692
vertex 256.7725524902 267.7172241211 92.1382293701
endloop
endfacet
facet normal 0.028000 0.956642 -0.289917
outer loop
vertex 263.1433715820 283.7482910156 91.4174728394
vertex 266.7107849121 285.5104064941 97.5764694214
vertex 269.9449462891 283.4735107422 91.1676483154
endloop
endfacet
facet normal -0.735991 -0.120895 0.666109
outer loop
vertex 249.5358123779 280.2821960449 132.4902496338
vertex 246.1983489990 283.6091003418 129.4064483643
vertex 245.5599517822 278.3624267578 127.7488403320
endloop
endfacet
facet normal -0.977471 0.007862 -0.210923
outer loop
vertex 241.8883514404 276.2771301270 116.4790420532
vertex 241.4013214111 280.7699890137 118.9034881592
vertex 242.5042877197 281.3961486816 113.8154373169
endloop
endfacet
facet normal -0.486553 0.743134 0.459367
outer loop
vertex 250.1619415283 300.3084106445 127.3651580811
vertex 253.6211853027 300.0289611816 131.4811859131
vertex 255.2644195557 303.2537536621 128.0048065186
endloop
endfacet
facet normal -0.956492 0.084779 -0.279168
outer loop
vertex 250.4497528076 282.5997619629 101.5951766968
vertex 251.3037414551 277.7615356445 97.1999588013
vertex 249.4765319824 276.2070007324 102.9882736206
endloop
endfacet
facet normal -0.851510 0.145529 -0.503738
outer loop
vertex 241.0470733643 286.1861877441 117.6625366211
vertex 244.6080780029 287.4097900391 111.9965591431
vertex 242.5042877197 281.3961486816 113.8154373169
endloop
endfacet
facet normal 0.723050 -0.440797 0.531881
outer loop
vertex 286.3366088867 271.8815307617 127.1854782104
vertex 288.2414550781 267.9213867188 121.3140335083
vertex 291.3564453125 274.4739074707 122.5098800659
endloop
endfacet
facet normal 0.753222 -0.405860 0.517624
outer loop
vertex 288.2414550781 267.9213867188 121.3140335083
vertex 283.2687683105 264.9719238281 126.2374496460
vertex 285.6389160156 260.9731750488 119.6531753540
endloop
endfacet
facet normal -0.873158 -0.154636 -0.462258
outer loop
vertex 243.7512969971 276.7628479004 111.6703186035
vertex 246.2752380371 273.6907653809 107.9305267334
vertex 243.7937164307 271.6730346680 113.2928466797
endloop
endfacet
facet normal 0.093097 0.683852 -0.723657
outer loop
vertex 267.8809814453 290.7107238770 108.8044815063
vertex 268.4071350098 295.2273254395 113.1403121948
vertex 273.6784667969 291.9971618652 110.7659606934
endloop
endfacet
facet normal 0.116786 0.659707 -0.742393
outer loop
vertex 281.5791320801 297.5184631348 115.2949676514
vertex 278.8460998535 301.0372009277 117.9918365479
vertex 284.1058349609 301.4335021973 119.1714401245
endloop
endfacet
facet normal -0.074889 0.960792 0.266964
outer loop
vertex 274.6666259766 301.3078918457 133.2941894531
vertex 280.2624816895 302.9633483887 128.9059906006
vertex 274.5548706055 303.3514099121 125.9082946777
endloop
endfacet
facet normal -0.068799 0.926709 -0.369428
outer loop
vertex 269.3305053711 305.1003723145 127.8223648071
vertex 263.8878784180 304.0942687988 126.3121871948
vertex 262.6666564941 306.4747009277 132.5109100342
endloop
endfacet
facet normal -0.778142 -0.525384 0.344189
outer loop
vertex 245.8545074463 266.2904357910 116.1053771973
vertex 247.9282531738 267.2881469727 122.3166885376
vertex 243.8855743408 271.4602050781 119.5453414917
endloop
endfacet
facet normal -0.444435 0.684774 0.577548
outer loop
vertex 262.6666564941 306.4747009277 132.5109100342
vertex 259.4122009277 307.7247619629 128.5243988037
vertex 257.9046020508 302.7779541016 133.2294769287
endloop
endfacet
facet normal 0.450803 0.843251 -0.292753
outer loop
vertex 285.4012451172 302.9085083008 125.4147949219
vertex 289.3479919434 299.5205688477 121.7335662842
vertex 284.1058349609 301.4335021973 119.1714401245
endloop
endfacet
facet normal -0.934167 -0.356832 0.001577
outer loop
vertex 245.8545074463 266.2904357910 116.1053771973
vertex 243.8855743408 271.4602050781 119.5453414917
vertex 243.7937164307 271.6730346680 113.2928466797
endloop
endfacet
facet normal 0.668678 0.647299 -0.365887
outer loop
vertex 285.2428588867 283.0383605957 97.9954071045
vertex 283.1444091797 288.0373840332 103.0042190552
vertex 288.6523437500 283.1948547363 104.5032348633
endloop
endfacet
facet normal -0.693371 0.596216 0.404676
outer loop
vertex 257.9046020508 302.7779541016 133.2294769287
vertex 259.4122009277 307.7247619629 128.5243988037
vertex 255.2644195557 303.2537536621 128.0048065186
endloop
endfacet
facet normal 0.123967 0.965804 -0.227718
outer loop
vertex 283.3184204102 292.8967895508 107.0889663696
vertex 279.4208679199 294.3021545410 110.9276428223
vertex 285.0778198242 293.8536376953 112.1050186157
endloop
endfacet
facet normal -0.636770 -0.765589 -0.091636
outer loop
vertex 254.5069732666 258.5311279297 114.9101257324
vertex 249.8891143799 262.6712951660 112.4094161987
vertex 253.9576263428 259.7941284180 108.1757354736
endloop
endfacet
facet normal 0.082459 0.865222 -0.494562
outer loop
vertex 267.2970275879 287.8834228516 103.7608261108
vertex 267.8809814453 290.7107238770 108.8044815063
vertex 272.6105651855 288.5283813477 105.7750701904
endloop
endfacet
facet normal -0.833170 -0.011442 -0.552899
outer loop
vertex 246.2870330811 280.9954528809 107.7615966797
vertex 246.2752380371 273.6907653809 107.9305267334
vertex 243.7512969971 276.7628479004 111.6703186035
endloop
endfacet
facet normal 0.011719 0.819915 -0.572365
outer loop
vertex 272.6105651855 288.5283813477 105.7750701904
vertex 267.8809814453 290.7107238770 108.8044815063
vertex 273.6784667969 291.9971618652 110.7659606934
endloop
endfacet
facet normal -0.064237 0.872189 -0.484932
outer loop
vertex 263.2974548340 297.0884399414 116.6238098145
vertex 263.7781677246 300.0428771973 121.8739089966
vertex 268.9790344238 298.6065063477 118.6015701294
endloop
endfacet
facet normal -0.099621 -0.881133 -0.462255
outer loop
vertex 264.4791870117 258.9405822754 100.5713119507
vertex 270.5509033203 259.1545715332 98.8549118042
vertex 268.8182678223 256.5210571289 104.2481842041
endloop
endfacet
facet normal 0.005899 0.013745 0.999888
outer loop
vertex 255.5532531738 283.0522766113 133.0050506592
vertex 261.2293395996 279.0032653809 133.0272216797
vertex 261.6005249023 285.9708862305 132.9292602539
endloop
endfacet
facet normal 0.005245 -0.006748 0.999963
outer loop
vertex 265.7969970703 268.4982604980 133.0167541504
vertex 271.9642639160 269.4138793945 132.9905853271
vertex 266.9597167969 274.5708312988 133.0516357422
endloop
endfacet
facet normal -0.746786 -0.339953 0.571614
outer loop
vertex 245.5599517822 278.3624267578 127.7488403320
vertex 246.2824249268 272.6624145508 125.3027801514
vertex 249.4555206299 274.3086853027 130.4273529053
endloop
endfacet
facet normal -0.770799 -0.571232 -0.282069
outer loop
vertex 249.8891143799 262.6712951660 112.4094161987
vertex 245.8545074463 266.2904357910 116.1053771973
vertex 247.1237640381 267.6773986816 109.8281097412
endloop
endfacet
facet normal 0.765550 -0.436578 -0.472580
outer loop
vertex 284.5165100098 271.8690185547 97.0845794678
vertex 287.2806091309 270.1485290527 103.1516799927
vertex 282.9834899902 266.4797668457 99.5798950195
endloop
endfacet
facet normal -0.489803 0.867462 -0.087198
outer loop
vertex 250.1619415283 300.3084106445 127.3651580811
vertex 255.2644195557 303.2537536621 128.0048065186
vertex 253.6000671387 301.7645874023 122.5392379761
endloop
endfacet
facet normal -0.101195 0.035050 0.994249
outer loop
vertex 255.5532531738 283.0522766113 133.0050506592
vertex 250.1113891602 286.7926025391 132.3193206787
vertex 249.5358123779 280.2821960449 132.4902496338
endloop
endfacet
facet normal 0.707930 -0.505498 -0.493262
outer loop
vertex 282.5894470215 272.2004089355 90.6879959106
vertex 282.1460571289 267.8442077637 94.5159225464
vertex 278.5768432617 266.6846313477 90.5816955566
endloop
endfacet
facet normal 0.600942 0.551021 -0.579003
outer loop
vertex 287.6903686523 297.5609436035 116.1071548462
vertex 291.9246520996 295.8905029297 118.9121551514
vertex 291.2125244141 291.8934326172 114.3691482544
endloop
endfacet
facet normal -0.182470 -0.726895 0.662064
outer loop
vertex 264.1956787109 259.8973083496 127.0352325439
vertex 261.7550354004 264.3889160156 131.2940216064
vertex 258.1212768555 261.3123474121 126.9146804810
endloop
endfacet
facet normal 0.895645 -0.369441 -0.247655
outer loop
vertex 284.5165100098 271.8690185547 97.0845794678
vertex 282.9834899902 266.4797668457 99.5798950195
vertex 282.1460571289 267.8442077637 94.5159225464
endloop
endfacet
facet normal -0.071520 0.512343 -0.855798
outer loop
vertex 268.4071350098 295.2273254395 113.1403121948
vertex 274.6657409668 298.3323364258 114.4761657715
vertex 273.6784667969 291.9971618652 110.7659606934
endloop
endfacet
facet normal -0.227974 0.898973 -0.373998
outer loop
vertex 274.4193725586 300.8719177246 120.7306823730
vertex 274.6657409668 298.3323364258 114.4761657715
vertex 268.9790344238 298.6065063477 118.6015701294
endloop
endfacet
facet normal 0.020323 -0.006527 0.999772
outer loop
vertex 272.0374145508 289.5847473145 132.9965057373
vertex 278.7490844727 291.7770996094 132.8743896484
vertex 273.5172729492 295.8699035645 133.0074615479
endloop
endfacet
facet normal 0.007459 0.012640 0.999892
outer loop
vertex 277.6208496094 283.9625854492 132.9021911621
vertex 268.5816955566 282.6561889648 132.9861297607
vertex 274.2916259766 276.5270080566 133.0210113525
endloop
endfacet
facet normal 0.765425 -0.433352 -0.475743
outer loop
vertex 287.2806091309 270.1485290527 103.1516799927
vertex 284.9177551270 263.6942138672 105.2292785645
vertex 282.9834899902 266.4797668457 99.5798950195
endloop
endfacet
facet normal 0.004107 0.127117 -0.991879
outer loop
vertex 262.9215393066 273.5596008301 87.0282287598
vertex 266.4048767090 278.9783630371 87.7371139526
vertex 269.4636230469 273.2171630859 87.0114364624
endloop
endfacet
facet normal 0.050641 0.861133 -0.505852
outer loop
vertex 267.2970275879 287.8834228516 103.7608261108
vertex 261.7160949707 287.3037719727 102.2153167725
vertex 263.3660888672 289.7608642578 106.5633239746
endloop
endfacet
facet normal 0.504205 -0.783681 -0.362796
outer loop
vertex 279.8481140137 261.5231018066 101.5062942505
vertex 280.0793762207 258.7973327637 107.7156448364
vertex 275.0136718750 257.6761169434 103.0974502563
endloop
endfacet
facet normal -0.463243 0.513681 -0.722176
outer loop
vertex 255.2644195557 303.2537536621 128.0048065186
vertex 259.4122009277 307.7247619629 128.5243988037
vertex 259.1625366211 302.1873779297 124.7458190918
endloop
endfacet
facet normal 0.007420 -0.855445 0.517841
outer loop
vertex 265.7234497070 256.6082458496 121.5799789429
vertex 270.9043579102 259.1197204590 125.6545562744
vertex 264.1956787109 259.8973083496 127.0352325439
endloop
endfacet
facet normal 0.008727 0.738427 -0.674277
outer loop
vertex 263.8878784180 304.0942687988 126.3121871948
vertex 269.1691589355 301.6932983398 123.7511291504
vertex 263.7781677246 300.0428771973 121.8739089966
endloop
endfacet
facet normal -0.308756 -0.830004 -0.464504
outer loop
vertex 264.4791870117 258.9405822754 100.5713119507
vertex 263.6225585938 256.5874328613 105.3454742432
vertex 259.0244445801 259.1304626465 103.8577880859
endloop
endfacet
facet normal -0.741801 -0.595691 -0.308031
outer loop
vertex 249.8891143799 262.6712951660 112.4094161987
vertex 250.6747741699 264.3840026855 107.2053070068
vertex 253.9576263428 259.7941284180 108.1757354736
endloop
endfacet
facet normal 0.156451 -0.869918 -0.467724
outer loop
vertex 275.7238769531 260.3853454590 98.2961502075
vertex 275.0136718750 257.6761169434 103.0974502563
vertex 270.5509033203 259.1545715332 98.8549118042
endloop
endfacet
facet normal -0.301173 -0.839993 -0.451340
outer loop
vertex 264.4791870117 258.9405822754 100.5713119507
vertex 259.0244445801 259.1304626465 103.8577880859
vertex 259.1080017090 262.6731872559 97.2086715698
endloop
endfacet
facet normal 0.078169 0.020183 0.996736
outer loop
vertex 277.6208496094 283.9625854492 132.9021911621
vertex 284.7518920898 281.3364257813 132.3961181641
vertex 284.5230407715 288.1757812500 132.2755737305
endloop
endfacet
facet normal 0.170818 -0.484055 0.858203
outer loop
vertex 271.9642639160 269.4138793945 132.9905853271
vertex 275.7247924805 263.9603271484 129.1660919189
vertex 280.2173767090 270.8905639648 132.1807556152
endloop
endfacet
facet normal 0.129468 -0.507941 0.851606
outer loop
vertex 275.7247924805 263.9603271484 129.1660919189
vertex 271.9642639160 269.4138793945 132.9905853271
vertex 268.4201965332 263.9603271484 130.2766113281
endloop
endfacet
facet normal -0.619423 0.095417 0.779238
outer loop
vertex 250.1113891602 286.7926025391 132.3193206787
vertex 250.4016723633 294.3029174805 131.6304473877
vertex 245.4087219238 289.3693237305 128.2656097412
endloop
endfacet
facet normal -0.790723 0.099466 0.604039
outer loop
vertex 241.6702270508 283.3927917480 124.3558502197
vertex 245.4087219238 289.3693237305 128.2656097412
vertex 241.3627319336 291.1184082031 122.6811523438
endloop
endfacet
facet normal 0.681270 -0.670676 -0.293369
outer loop
vertex 282.9834899902 266.4797668457 99.5798950195
vertex 278.9510498047 263.8972167969 96.1196975708
vertex 282.1460571289 267.8442077637 94.5159225464
endloop
endfacet
facet normal -0.564605 -0.641335 0.519529
outer loop
vertex 252.9432067871 264.0943603516 124.7215957642
vertex 258.1212768555 261.3123474121 126.9146804810
vertex 255.6221618652 266.1769714355 130.2038879395
endloop
endfacet
facet normal -0.604006 0.706134 0.369528
outer loop
vertex 255.2644195557 303.2537536621 128.0048065186
vertex 253.6211853027 300.0289611816 131.4811859131
vertex 257.9046020508 302.7779541016 133.2294769287
endloop
endfacet
facet normal -0.407968 -0.843635 -0.349060
outer loop
vertex 260.1092224121 255.9325561523 110.3188781738
vertex 253.9576263428 259.7941284180 108.1757354736
vertex 259.0244445801 259.1304626465 103.8577880859
endloop
endfacet
facet normal -0.306630 0.823447 -0.477403
outer loop
vertex 274.6657409668 298.3323364258 114.4761657715
vertex 268.4071350098 295.2273254395 113.1403121948
vertex 268.9790344238 298.6065063477 118.6015701294
endloop
endfacet
facet normal -0.024377 -0.001058 0.999702
outer loop
vertex 259.8718261719 271.3200378418 132.9859924316
vertex 261.2293395996 279.0032653809 133.0272216797
vertex 254.7781677246 276.4467468262 132.8672027588
endloop
endfacet
facet normal 0.115108 -0.010047 0.993302
outer loop
vertex 278.7490844727 291.7770996094 132.8743896484
vertex 284.8440856934 294.8847045898 132.1995086670
vertex 279.8518066406 298.1421203613 132.8109741211
endloop
endfacet
facet normal -0.395473 0.032451 0.917904
outer loop
vertex 257.9046020508 302.7779541016 133.2294769287
vertex 253.6211853027 300.0289611816 131.4811859131
vertex 256.9911193848 296.3577575684 133.0628967285
endloop
endfacet
